<svg xmlns="http://www.w3.org/2000/svg" xmlns:xlink="http://www.w3.org/1999/xlink" contentStyleType="text/css" data-diagram-type="ACTIVITY" height="869px" preserveAspectRatio="none" style="width:422px;height:869px;background:#F4F6F8;" version="1.1" viewBox="0 0 422 869" width="422px" zoomAndPan="magnify"><?plantuml 1.2026.3beta6?><defs/><g><rect fill="#F4F6F8" height="869" style="stroke:none;stroke-width:1;" width="422" x="0" y="0"/><g class="title" data-source-line="1"><text fill="#000000" font-family="Arial" font-size="14" font-weight="700" lengthAdjust="spacing" textLength="272.9658" x="73.8911" y="32.9951">HU-05 - Reporte diario (User Flow)</text></g><rect fill="#1C1C1C" height="33.9688" rx="12.5" ry="12.5" style="stroke:#1C1C1C;stroke-width:0.5;" width="51.752" x="174.8071" y="53.2969"/><text fill="#FFFFFF" font-family="Arial" font-size="12" lengthAdjust="spacing" textLength="31.752" x="184.8071" y="74.4355">Inicio</text><rect fill="#E3F2FD" height="33.9688" rx="12.5" ry="12.5" style="stroke:#1565C0;stroke-width:0.5;" width="129.0723" x="136.147" y="107.2656"/><text fill="#0D47A1" font-family="Arial" font-size="12" lengthAdjust="spacing" textLength="109.0723" x="146.147" y="128.4043">Accede al sistema</text><rect fill="#E3F2FD" height="33.9688" rx="12.5" ry="12.5" style="stroke:#1565C0;stroke-width:0.5;" width="205.7656" x="97.8003" y="161.2344"/><text fill="#0D47A1" font-family="Arial" font-size="12" lengthAdjust="spacing" textLength="185.7656" x="107.8003" y="182.373">Selecciona "Ver reporte diario"</text><rect fill="#E3F2FD" height="33.9688" rx="12.5" ry="12.5" style="stroke:#1565C0;stroke-width:0.5;" width="121.5254" x="139.9204" y="215.2031"/><text fill="#0D47A1" font-family="Arial" font-size="12" lengthAdjust="spacing" textLength="101.5254" x="149.9204" y="236.3418">Selecciona fecha</text><polygon fill="#F1F1F1" points="160.126,269.1719,241.2402,269.1719,253.2402,281.1719,241.2402,293.1719,160.126,293.1719,148.126,281.1719,160.126,269.1719" style="stroke:#181818;stroke-width:0.5;"/><text fill="#000000" font-family="Arial" font-size="11" lengthAdjust="spacing" textLength="81.1143" x="160.126" y="284.98">&#191;Fecha v&#225;lida?</text><text fill="#000000" font-family="Arial" font-size="11" lengthAdjust="spacing" textLength="10.0386" x="138.0874" y="278.5776">S&#237;</text><text fill="#000000" font-family="Arial" font-size="11" lengthAdjust="spacing" textLength="14.9585" x="253.2402" y="278.5776">No</text><rect fill="#FFF0F0" height="33.9688" rx="12.5" ry="12.5" style="stroke:#E53935;stroke-width:0.5;" width="165.9922" x="16" y="303.1719"/><text fill="#B71C1C" font-family="Arial" font-size="12" lengthAdjust="spacing" textLength="145.9922" x="26" y="324.3105">Consultar ventas del d&#237;a</text><rect fill="#FFF0F0" height="33.9688" rx="12.5" ry="12.5" style="stroke:#E53935;stroke-width:0.5;" width="200.7559" x="201.9922" y="303.1719"/><text fill="#B71C1C" font-family="Arial" font-size="12" lengthAdjust="spacing" textLength="180.7559" x="211.9922" y="324.3105">Mostrar error "Fecha inv&#225;lida"</text><rect fill="#1C1C1C" height="33.9688" rx="12.5" ry="12.5" style="stroke:#1C1C1C;stroke-width:0.5;" width="37.8418" x="283.4492" y="357.1406"/><text fill="#FFFFFF" font-family="Arial" font-size="12" lengthAdjust="spacing" textLength="17.8418" x="293.4492" y="378.2793">Fin</text><ellipse cx="302.3701" cy="422.1094" fill="none" rx="11" ry="11" style="stroke:#222222;stroke-width:1;"/><ellipse cx="302.3701" cy="422.1094" fill="#222222" rx="6" ry="6" style="stroke:#222222;stroke-width:1;"/><rect fill="#FFF0F0" height="33.9688" rx="12.5" ry="12.5" style="stroke:#E53935;stroke-width:0.5;" width="137.873" x="131.7466" y="453.1094"/><text fill="#B71C1C" font-family="Arial" font-size="12" lengthAdjust="spacing" textLength="117.873" x="141.7466" y="474.248">Calcular total diario</text><rect fill="#FFF0F0" height="33.9688" rx="12.5" ry="12.5" style="stroke:#E53935;stroke-width:0.5;" width="182.2109" x="109.5776" y="507.0781"/><text fill="#B71C1C" font-family="Arial" font-size="12" lengthAdjust="spacing" textLength="162.2109" x="119.5776" y="528.2168">Contar productos vendidos</text><rect fill="#FFF0F0" height="33.9688" rx="12.5" ry="12.5" style="stroke:#E53935;stroke-width:0.5;" width="125.5566" x="137.9048" y="561.0469"/><text fill="#B71C1C" font-family="Arial" font-size="12" lengthAdjust="spacing" textLength="105.5566" x="147.9048" y="582.1855">Generar resumen</text><rect fill="#FFF0F0" height="33.9688" rx="12.5" ry="12.5" style="stroke:#E53935;stroke-width:0.5;" width="113.9844" x="143.6909" y="615.0156"/><text fill="#B71C1C" font-family="Arial" font-size="12" lengthAdjust="spacing" textLength="93.9844" x="153.6909" y="636.1543">Mostrar reporte</text><rect fill="#E3F2FD" height="33.9688" rx="12.5" ry="12.5" style="stroke:#1565C0;stroke-width:0.5;" width="147.459" x="126.9536" y="717.3867"/><text fill="#0D47A1" font-family="Arial" font-size="12" lengthAdjust="spacing" textLength="127.459" x="136.9536" y="738.5254">Ingresar nueva fecha</text><polygon fill="#F1F1F1" points="120.4658,668.9844,280.9004,668.9844,292.9004,680.9844,280.9004,692.9844,120.4658,692.9844,108.4658,680.9844,120.4658,668.9844" style="stroke:#181818;stroke-width:0.5;"/><text fill="#000000" font-family="Arial" font-size="11" lengthAdjust="spacing" textLength="10.0386" x="204.6831" y="703.1948">S&#237;</text><text fill="#000000" font-family="Arial" font-size="11" lengthAdjust="spacing" textLength="160.4346" x="120.4658" y="684.7925">&#191;Desea consultar otra fecha?</text><text fill="#000000" font-family="Arial" font-size="11" lengthAdjust="spacing" textLength="14.9585" x="292.9004" y="678.3901">No</text><polygon fill="#F1F1F1" points="200.6831,771.3555,212.6831,783.3555,200.6831,795.3555,188.6831,783.3555,200.6831,771.3555" style="stroke:#181818;stroke-width:0.5;"/><rect fill="#1C1C1C" height="33.9688" rx="12.5" ry="12.5" style="stroke:#1C1C1C;stroke-width:0.5;" width="37.8418" x="181.7622" y="815.3555"/><text fill="#FFFFFF" font-family="Arial" font-size="12" lengthAdjust="spacing" textLength="17.8418" x="191.7622" y="836.4941">Fin</text><line style="stroke:#181818;stroke-width:1;" x1="200.6831" x2="200.6831" y1="87.2656" y2="107.2656"/><polygon fill="#181818" points="196.6831,97.2656,200.6831,107.2656,204.6831,97.2656,200.6831,101.2656" style="stroke:#181818;stroke-width:1;"/><line style="stroke:#181818;stroke-width:1;" x1="200.6831" x2="200.6831" y1="141.2344" y2="161.2344"/><polygon fill="#181818" points="196.6831,151.2344,200.6831,161.2344,204.6831,151.2344,200.6831,155.2344" style="stroke:#181818;stroke-width:1;"/><line style="stroke:#181818;stroke-width:1;" x1="200.6831" x2="200.6831" y1="195.2031" y2="215.2031"/><polygon fill="#181818" points="196.6831,205.2031,200.6831,215.2031,204.6831,205.2031,200.6831,209.2031" style="stroke:#181818;stroke-width:1;"/><line style="stroke:#181818;stroke-width:1;" x1="302.3701" x2="302.3701" y1="337.1406" y2="357.1406"/><polygon fill="#181818" points="298.3701,347.1406,302.3701,357.1406,306.3701,347.1406,302.3701,351.1406" style="stroke:#181818;stroke-width:1;"/><line style="stroke:#181818;stroke-width:1;" x1="302.3701" x2="302.3701" y1="391.1094" y2="411.1094"/><polygon fill="#181818" points="298.3701,401.1094,302.3701,411.1094,306.3701,401.1094,302.3701,405.1094" style="stroke:#181818;stroke-width:1;"/><line style="stroke:#181818;stroke-width:1;" x1="148.126" x2="98.9961" y1="281.1719" y2="281.1719"/><line style="stroke:#181818;stroke-width:1;" x1="98.9961" x2="98.9961" y1="281.1719" y2="303.1719"/><polygon fill="#181818" points="94.9961,293.1719,98.9961,303.1719,102.9961,293.1719,98.9961,297.1719" style="stroke:#181818;stroke-width:1;"/><line style="stroke:#181818;stroke-width:1;" x1="253.2402" x2="302.3701" y1="281.1719" y2="281.1719"/><line style="stroke:#181818;stroke-width:1;" x1="302.3701" x2="302.3701" y1="281.1719" y2="303.1719"/><polygon fill="#181818" points="298.3701,293.1719,302.3701,303.1719,306.3701,293.1719,302.3701,297.1719" style="stroke:#181818;stroke-width:1;"/><line style="stroke:#181818;stroke-width:1;" x1="98.9961" x2="98.9961" y1="337.1406" y2="438.1094"/><line style="stroke:#181818;stroke-width:1;" x1="98.9961" x2="200.6831" y1="438.1094" y2="438.1094"/><line style="stroke:#181818;stroke-width:1;" x1="200.6831" x2="200.6831" y1="438.1094" y2="453.1094"/><polygon fill="#181818" points="196.6831,443.1094,200.6831,453.1094,204.6831,443.1094,200.6831,447.1094" style="stroke:#181818;stroke-width:1;"/><line style="stroke:#181818;stroke-width:1;" x1="200.6831" x2="200.6831" y1="249.1719" y2="269.1719"/><polygon fill="#181818" points="196.6831,259.1719,200.6831,269.1719,204.6831,259.1719,200.6831,263.1719" style="stroke:#181818;stroke-width:1;"/><line style="stroke:#181818;stroke-width:1;" x1="200.6831" x2="200.6831" y1="487.0781" y2="507.0781"/><polygon fill="#181818" points="196.6831,497.0781,200.6831,507.0781,204.6831,497.0781,200.6831,501.0781" style="stroke:#181818;stroke-width:1;"/><line style="stroke:#181818;stroke-width:1;" x1="200.6831" x2="200.6831" y1="541.0469" y2="561.0469"/><polygon fill="#181818" points="196.6831,551.0469,200.6831,561.0469,204.6831,551.0469,200.6831,555.0469" style="stroke:#181818;stroke-width:1;"/><line style="stroke:#181818;stroke-width:1;" x1="200.6831" x2="200.6831" y1="595.0156" y2="615.0156"/><polygon fill="#181818" points="196.6831,605.0156,200.6831,615.0156,204.6831,605.0156,200.6831,609.0156" style="stroke:#181818;stroke-width:1;"/><line style="stroke:#181818;stroke-width:1;" x1="200.6831" x2="200.6831" y1="692.9844" y2="717.3867"/><polygon fill="#181818" points="196.6831,707.3867,200.6831,717.3867,204.6831,707.3867,200.6831,711.3867" style="stroke:#181818;stroke-width:1;"/><line style="stroke:#181818;stroke-width:1;" x1="292.9004" x2="304.9004" y1="680.9844" y2="680.9844"/><polygon fill="#181818" points="300.9004,724.3711,304.9004,734.3711,308.9004,724.3711,304.9004,728.3711" style="stroke:#181818;stroke-width:1;"/><line style="stroke:#181818;stroke-width:1;" x1="304.9004" x2="304.9004" y1="680.9844" y2="783.3555"/><line style="stroke:#181818;stroke-width:1;" x1="304.9004" x2="212.6831" y1="783.3555" y2="783.3555"/><polygon fill="#181818" points="222.6831,779.3555,212.6831,783.3555,222.6831,787.3555,218.6831,783.3555" style="stroke:#181818;stroke-width:1;"/><line style="stroke:#181818;stroke-width:1;" x1="200.6831" x2="200.6831" y1="751.3555" y2="771.3555"/><polygon fill="#181818" points="196.6831,761.3555,200.6831,771.3555,204.6831,761.3555,200.6831,765.3555" style="stroke:#181818;stroke-width:1;"/><line style="stroke:#181818;stroke-width:1;" x1="200.6831" x2="200.6831" y1="648.9844" y2="668.9844"/><polygon fill="#181818" points="196.6831,658.9844,200.6831,668.9844,204.6831,658.9844,200.6831,662.9844" style="stroke:#181818;stroke-width:1;"/><line style="stroke:#181818;stroke-width:1;" x1="200.6831" x2="200.6831" y1="795.3555" y2="815.3555"/><polygon fill="#181818" points="196.6831,805.3555,200.6831,815.3555,204.6831,805.3555,200.6831,809.3555" style="stroke:#181818;stroke-width:1;"/><?plantuml-src ZLFDRjf04BxlKupe8Q0gae4O0erI6SEsEPH3elG-zGwmohABTjT4QTM7wGFa6IgL5-iQWsgR8DKNo_FpVTzyC_RIAuBFZvTH39TmJnjZFO6GQAM1zgCZ2roPvmvZxadg3LfSmpVCdfRMv5gaHXaBx_WL7_3hIeLReJ3FKYzXWSfH9JEb1URASwFz7DS4YPMe6Bk0UKvRX0qgyWXj_9uhC2xBhO7ta1cBgbD1mSpBhVGlDpTvK7Xx2pyOmAGfQzRdFJujCiOAieTeDnx4QHIYXOP3B9fU3PDkYDsNxLQ7kNiH-ydU97KlpjFw72tdFE9HatOMzqVzk4ux6NRJRlh_j1x3ShGuHro0xU4g57p_d7YGlaKSrud34QoD5cUylPubVD34xO-kHicahg2RzFh3MG5z0NTQPjAmSVd-0DMP61idMKQ201KuMJYCHKMvOJP-84LPwD88hQz1hgtTQgjIMgjTKBQguZ2vWFQVtxm8mtRtIqc17plWLwIX_R1xxGJruzHe5wuKBMn9UtGWI87OlUw1Zjjd54uRsdEpR_bYdBUXWQmDKxTAVAaF3ArQOoZdKZV61t3UR5Zua8imGeegorK0zCO7GyefQoY5oaBYnXgHPzwuGgoGmhXQ6Hj_eh1UB1np-Pfq8tiKVl2pdYtDcf8Z37_XqHGJ6afZJvoxqyj04shq_dzkkl_FikES9qRy1G00?></g></svg>