<svg xmlns="http://www.w3.org/2000/svg" xmlns:xlink="http://www.w3.org/1999/xlink" contentStyleType="text/css" data-diagram-type="ACTIVITY" height="749px" preserveAspectRatio="none" style="width:402px;height:749px;background:#FBFAFF;" version="1.1" viewBox="0 0 402 749" width="402px" zoomAndPan="magnify"><?plantuml 1.2026.3beta6?><defs/><g><rect fill="#FBFAFF" height="749" style="stroke:none;stroke-width:1;" width="402" x="0" y="0"/><g class="title" data-source-line="1"><text fill="#000000" font-family="Arial" font-size="14" font-weight="700" lengthAdjust="spacing" textLength="317.9463" x="41.106" y="32.9951">HU-06 - Alerta de stock bajo (User Flow)</text></g><rect fill="#2E2E2E" height="33.9688" rx="12.5" ry="12.5" style="stroke:#2E2E2E;stroke-width:0.5;" width="51.752" x="187.5659" y="53.2969"/><text fill="#FFFFFF" font-family="Arial" font-size="12" lengthAdjust="spacing" textLength="31.752" x="197.5659" y="74.4355">Inicio</text><rect fill="#EDE7F6" height="33.9688" rx="12.5" ry="12.5" style="stroke:#5E35B1;stroke-width:0.5;" width="129.0723" x="148.9058" y="107.2656"/><text fill="#311B92" font-family="Arial" font-size="12" lengthAdjust="spacing" textLength="109.0723" x="158.9058" y="128.4043">Accede al sistema</text><rect fill="#EDE7F6" height="33.9688" rx="12.5" ry="12.5" style="stroke:#5E35B1;stroke-width:0.5;" width="224.9199" x="100.9819" y="161.2344"/><text fill="#311B92" font-family="Arial" font-size="12" lengthAdjust="spacing" textLength="204.9199" x="110.9819" y="182.373">Define stock m&#237;nimo por producto</text><rect fill="#F1F8E9" height="33.9688" rx="12.5" ry="12.5" style="stroke:#7CB342;stroke-width:0.5;" width="238.8418" x="94.021" y="215.2031"/><text fill="#33691E" font-family="Arial" font-size="12" lengthAdjust="spacing" textLength="218.8418" x="104.021" y="236.3418">Monitoreo autom&#225;tico del inventario</text><rect fill="#F1F8E9" height="33.9688" rx="12.5" ry="12.5" style="stroke:#7CB342;stroke-width:0.5;" width="178.1914" x="124.3462" y="269.1719"/><text fill="#33691E" font-family="Arial" font-size="12" lengthAdjust="spacing" textLength="158.1914" x="134.3462" y="290.3105">Consultar niveles de stock</text><polygon fill="#F1F1F1" points="159.0461,323.1406,267.8376,323.1406,279.8376,335.1406,267.8376,347.1406,159.0461,347.1406,147.0461,335.1406,159.0461,323.1406" style="stroke:#181818;stroke-width:0.5;"/><text fill="#000000" font-family="Arial" font-size="11" lengthAdjust="spacing" textLength="108.7915" x="159.0461" y="338.9487">&#191;Stock &lt;= m&#237;nimo?</text><text fill="#000000" font-family="Arial" font-size="11" lengthAdjust="spacing" textLength="10.0386" x="137.0076" y="332.5464">S&#237;</text><text fill="#000000" font-family="Arial" font-size="11" lengthAdjust="spacing" textLength="14.9585" x="279.8376" y="332.5464">No</text><rect fill="#F1F8E9" height="33.9688" rx="12.5" ry="12.5" style="stroke:#7CB342;stroke-width:0.5;" width="178.8594" x="27.4727" y="357.1406"/><text fill="#33691E" font-family="Arial" font-size="12" lengthAdjust="spacing" textLength="158.8594" x="37.4727" y="378.2793">Identificar producto cr&#237;tico</text><rect fill="#F1F8E9" height="33.9688" rx="12.5" ry="12.5" style="stroke:#7CB342;stroke-width:0.5;" width="146.5625" x="43.6211" y="411.1094"/><text fill="#33691E" font-family="Arial" font-size="12" lengthAdjust="spacing" textLength="126.5625" x="53.6211" y="432.248">Generar alerta visual</text><rect fill="#F1F8E9" height="33.9688" rx="12.5" ry="12.5" style="stroke:#7CB342;stroke-width:0.5;" width="201.8047" x="16" y="465.0781"/><text fill="#33691E" font-family="Arial" font-size="12" lengthAdjust="spacing" textLength="181.8047" x="26" y="486.2168">Mostrar notificaci&#243;n al usuario</text><rect fill="#F1F8E9" height="33.9688" rx="12.5" ry="12.5" style="stroke:#7CB342;stroke-width:0.5;" width="144.3535" x="237.8047" y="357.1406"/><text fill="#33691E" font-family="Arial" font-size="12" lengthAdjust="spacing" textLength="124.3535" x="247.8047" y="378.2793">Continuar monitoreo</text><polygon fill="#F1F1F1" points="213.4419,505.0469,225.4419,517.0469,213.4419,529.0469,201.4419,517.0469,213.4419,505.0469" style="stroke:#181818;stroke-width:0.5;"/><rect fill="#EDE7F6" height="33.9688" rx="12.5" ry="12.5" style="stroke:#5E35B1;stroke-width:0.5;" width="165.1719" x="130.856" y="597.4492"/><text fill="#311B92" font-family="Arial" font-size="12" lengthAdjust="spacing" textLength="145.1719" x="140.856" y="618.5879">Ver detalle del producto</text><polygon fill="#F1F1F1" points="143.3035,549.0469,283.5803,549.0469,295.5803,561.0469,283.5803,573.0469,143.3035,573.0469,131.3035,561.0469,143.3035,549.0469" style="stroke:#181818;stroke-width:0.5;"/><text fill="#000000" font-family="Arial" font-size="11" lengthAdjust="spacing" textLength="10.0386" x="217.4419" y="583.2573">S&#237;</text><text fill="#000000" font-family="Arial" font-size="11" lengthAdjust="spacing" textLength="140.2769" x="143.3035" y="564.855">&#191;Desea revisar producto?</text><text fill="#000000" font-family="Arial" font-size="11" lengthAdjust="spacing" textLength="14.9585" x="295.5803" y="558.4526">No</text><polygon fill="#F1F1F1" points="213.4419,651.418,225.4419,663.418,213.4419,675.418,201.4419,663.418,213.4419,651.418" style="stroke:#181818;stroke-width:0.5;"/><rect fill="#2E2E2E" height="33.9688" rx="12.5" ry="12.5" style="stroke:#2E2E2E;stroke-width:0.5;" width="37.8418" x="194.521" y="695.418"/><text fill="#FFFFFF" font-family="Arial" font-size="12" lengthAdjust="spacing" textLength="17.8418" x="204.521" y="716.5566">Fin</text><line style="stroke:#181818;stroke-width:1;" x1="213.4419" x2="213.4419" y1="87.2656" y2="107.2656"/><polygon fill="#181818" points="209.4419,97.2656,213.4419,107.2656,217.4419,97.2656,213.4419,101.2656" style="stroke:#181818;stroke-width:1;"/><line style="stroke:#181818;stroke-width:1;" x1="213.4419" x2="213.4419" y1="141.2344" y2="161.2344"/><polygon fill="#181818" points="209.4419,151.2344,213.4419,161.2344,217.4419,151.2344,213.4419,155.2344" style="stroke:#181818;stroke-width:1;"/><line style="stroke:#181818;stroke-width:1;" x1="213.4419" x2="213.4419" y1="195.2031" y2="215.2031"/><polygon fill="#181818" points="209.4419,205.2031,213.4419,215.2031,217.4419,205.2031,213.4419,209.2031" style="stroke:#181818;stroke-width:1;"/><line style="stroke:#181818;stroke-width:1;" x1="213.4419" x2="213.4419" y1="249.1719" y2="269.1719"/><polygon fill="#181818" points="209.4419,259.1719,213.4419,269.1719,217.4419,259.1719,213.4419,263.1719" style="stroke:#181818;stroke-width:1;"/><line style="stroke:#181818;stroke-width:1;" x1="116.9023" x2="116.9023" y1="391.1094" y2="411.1094"/><polygon fill="#181818" points="112.9023,401.1094,116.9023,411.1094,120.9023,401.1094,116.9023,405.1094" style="stroke:#181818;stroke-width:1;"/><line style="stroke:#181818;stroke-width:1;" x1="116.9023" x2="116.9023" y1="445.0781" y2="465.0781"/><polygon fill="#181818" points="112.9023,455.0781,116.9023,465.0781,120.9023,455.0781,116.9023,459.0781" style="stroke:#181818;stroke-width:1;"/><line style="stroke:#181818;stroke-width:1;" x1="147.0461" x2="116.9023" y1="335.1406" y2="335.1406"/><line style="stroke:#181818;stroke-width:1;" x1="116.9023" x2="116.9023" y1="335.1406" y2="357.1406"/><polygon fill="#181818" points="112.9023,347.1406,116.9023,357.1406,120.9023,347.1406,116.9023,351.1406" style="stroke:#181818;stroke-width:1;"/><line style="stroke:#181818;stroke-width:1;" x1="279.8376" x2="309.9814" y1="335.1406" y2="335.1406"/><line style="stroke:#181818;stroke-width:1;" x1="309.9814" x2="309.9814" y1="335.1406" y2="357.1406"/><polygon fill="#181818" points="305.9814,347.1406,309.9814,357.1406,313.9814,347.1406,309.9814,351.1406" style="stroke:#181818;stroke-width:1;"/><line style="stroke:#181818;stroke-width:1;" x1="116.9023" x2="116.9023" y1="499.0469" y2="517.0469"/><line style="stroke:#181818;stroke-width:1;" x1="116.9023" x2="201.4419" y1="517.0469" y2="517.0469"/><polygon fill="#181818" points="191.4419,513.0469,201.4419,517.0469,191.4419,521.0469,195.4419,517.0469" style="stroke:#181818;stroke-width:1;"/><line style="stroke:#181818;stroke-width:1;" x1="309.9814" x2="309.9814" y1="391.1094" y2="517.0469"/><line style="stroke:#181818;stroke-width:1;" x1="309.9814" x2="225.4419" y1="517.0469" y2="517.0469"/><polygon fill="#181818" points="235.4419,513.0469,225.4419,517.0469,235.4419,521.0469,231.4419,517.0469" style="stroke:#181818;stroke-width:1;"/><line style="stroke:#181818;stroke-width:1;" x1="213.4419" x2="213.4419" y1="303.1406" y2="323.1406"/><polygon fill="#181818" points="209.4419,313.1406,213.4419,323.1406,217.4419,313.1406,213.4419,317.1406" style="stroke:#181818;stroke-width:1;"/><line style="stroke:#181818;stroke-width:1;" x1="213.4419" x2="213.4419" y1="573.0469" y2="597.4492"/><polygon fill="#181818" points="209.4419,587.4492,213.4419,597.4492,217.4419,587.4492,213.4419,591.4492" style="stroke:#181818;stroke-width:1;"/><line style="stroke:#181818;stroke-width:1;" x1="295.5803" x2="307.5803" y1="561.0469" y2="561.0469"/><polygon fill="#181818" points="303.5803,604.4336,307.5803,614.4336,311.5803,604.4336,307.5803,608.4336" style="stroke:#181818;stroke-width:1;"/><line style="stroke:#181818;stroke-width:1;" x1="307.5803" x2="307.5803" y1="561.0469" y2="663.418"/><line style="stroke:#181818;stroke-width:1;" x1="307.5803" x2="225.4419" y1="663.418" y2="663.418"/><polygon fill="#181818" points="235.4419,659.418,225.4419,663.418,235.4419,667.418,231.4419,663.418" style="stroke:#181818;stroke-width:1;"/><line style="stroke:#181818;stroke-width:1;" x1="213.4419" x2="213.4419" y1="631.418" y2="651.418"/><polygon fill="#181818" points="209.4419,641.418,213.4419,651.418,217.4419,641.418,213.4419,645.418" style="stroke:#181818;stroke-width:1;"/><line style="stroke:#181818;stroke-width:1;" x1="213.4419" x2="213.4419" y1="529.0469" y2="549.0469"/><polygon fill="#181818" points="209.4419,539.0469,213.4419,549.0469,217.4419,539.0469,213.4419,543.0469" style="stroke:#181818;stroke-width:1;"/><line style="stroke:#181818;stroke-width:1;" x1="213.4419" x2="213.4419" y1="675.418" y2="695.418"/><polygon fill="#181818" points="209.4419,685.418,213.4419,695.418,217.4419,685.418,213.4419,689.418" style="stroke:#181818;stroke-width:1;"/><?plantuml-src ZLHBRjj03Dth50IwY8qYW6KtTgowAIHRQhE85mtI_LGQ9wn7GsDcf20eSfWUmAiUe41ziLB-999g0vKM0ZXl-1uVIJbqIiBdk_FU4CuXLD8u0Pa4woXTmZVndQ1pPwM1HD5Zr_Fi4lLA697pMRgyDrJeR4gA3Bn9eYHCaXh2FeYC7b7Vmq8eAsidCxaGXN89QJSNkOJGe52UTmRpGfO2La99bj79oN0689iMXk0jbDAmD8MvwDQIYTHXYUvfCYbOwDKL_F00ehQwU1QFac5rGfp4xACNyU0YyZbQITd71huVZViS-xAxRZINt-zvpzvHKljadSnFqIP-SXcFsxIZQJHurs_H3ePZF_v_MYUCapexHToFgxT9aMoVjfWNP8FueacSeSX9PoUylOp38zvEXz6qrrJWX_t1AAvIdy6rnXJ92tRVzr2loVE2C4qbTriei5WvB2h4hiDUm0E4-Z2b-MQjCITOCSFAK5QaZcfWBxWXZOwC9125etppqs5AFEKAK9TIC-kUVzzAlZ8bRNb2XG6DfLJIlYn54uWBwFpvVRlLCVbmaFAn2-v1QkZSRjPTTY2upfW65vYALucGciswKjB8oE1FaZl0GB7RnX9j8LGRT4FMLI1DkxmfRdxfogs2qUrw9AyVTEQqrSAbETGCWlpWInEiCrmSAfj9AmKOoI9gql-fxokFJCOxg_XdKlbwf0sl6lO4GOAwsVM_?></g></svg>