<svg xmlns="http://www.w3.org/2000/svg" xmlns:xlink="http://www.w3.org/1999/xlink" contentStyleType="text/css" data-diagram-type="ACTIVITY" height="1306px" preserveAspectRatio="none" style="width:377px;height:1306px;background:#FFFFFF;" version="1.1" viewBox="0 0 377 1306" width="377px" zoomAndPan="magnify"><?plantuml 1.2026.3beta6?><defs/><g><g class="title" data-source-line="1"><text fill="#000000" font-family="Arial" font-size="14" font-weight="700" lengthAdjust="spacing" textLength="335.1182" x="20" y="32.9951">HU-01 - Registro de Productos (User Flow)</text></g><rect fill="#212121" height="33.9688" rx="12.5" ry="12.5" style="stroke:#212121;stroke-width:0.5;" width="51.752" x="177.5698" y="53.2969"/><text fill="#FFFFFF" font-family="Arial" font-size="12" lengthAdjust="spacing" textLength="31.752" x="187.5698" y="74.4355">Inicio</text><rect fill="#EDE7F6" height="33.9688" rx="12.5" ry="12.5" style="stroke:#B39DDB;stroke-width:0.5;" width="129.0723" x="138.9097" y="107.2656"/><text fill="#000000" font-family="Arial" font-size="12" lengthAdjust="spacing" textLength="109.0723" x="148.9097" y="128.4043">Accede al sistema</text><rect fill="#EDE7F6" height="33.9688" rx="12.5" ry="12.5" style="stroke:#B39DDB;stroke-width:0.5;" width="211.4434" x="97.7241" y="161.2344"/><text fill="#000000" font-family="Arial" font-size="12" lengthAdjust="spacing" textLength="191.4434" x="107.7241" y="182.373">Selecciona "Registrar Producto"</text><rect fill="#EDE7F6" height="33.9688" rx="12.5" ry="12.5" style="stroke:#B39DDB;stroke-width:0.5;" width="194.791" x="106.0503" y="215.2031"/><text fill="#000000" font-family="Arial" font-size="12" lengthAdjust="spacing" textLength="174.791" x="116.0503" y="236.3418">Ingresa nombre del producto</text><polygon fill="#F1F1F1" points="157.3484,269.1719,249.5432,269.1719,261.5432,281.1719,249.5432,293.1719,157.3484,293.1719,145.3484,281.1719,157.3484,269.1719" style="stroke:#181818;stroke-width:0.5;"/><text fill="#000000" font-family="Arial" font-size="11" lengthAdjust="spacing" textLength="92.1948" x="157.3484" y="284.98">&#191;Nombre v&#225;lido?</text><text fill="#000000" font-family="Arial" font-size="11" lengthAdjust="spacing" textLength="10.0386" x="135.3098" y="278.5776">S&#237;</text><text fill="#000000" font-family="Arial" font-size="11" lengthAdjust="spacing" textLength="14.9585" x="261.5432" y="278.5776">No</text><rect fill="#E3F2FD" height="33.9688" rx="12.5" ry="12.5" style="stroke:#64B5F6;stroke-width:0.5;" width="109.5723" x="80.5623" y="303.1719"/><text fill="#000000" font-family="Arial" font-size="12" lengthAdjust="spacing" textLength="89.5723" x="90.5623" y="324.3105">Solicitar precio</text><rect fill="#E3F2FD" height="33.9688" rx="12.5" ry="12.5" style="stroke:#64B5F6;stroke-width:0.5;" width="99.2129" x="221.9368" y="303.1719"/><text fill="#000000" font-family="Arial" font-size="12" lengthAdjust="spacing" textLength="79.2129" x="231.9368" y="324.3105">Mostrar error</text><rect fill="#212121" height="33.9688" rx="12.5" ry="12.5" style="stroke:#212121;stroke-width:0.5;" width="37.8418" x="252.6223" y="357.1406"/><text fill="#FFFFFF" font-family="Arial" font-size="12" lengthAdjust="spacing" textLength="17.8418" x="262.6223" y="378.2793">Fin</text><ellipse cx="271.5432" cy="422.1094" fill="none" rx="11" ry="11" style="stroke:#222222;stroke-width:1;"/><ellipse cx="271.5432" cy="422.1094" fill="#222222" rx="6" ry="6" style="stroke:#222222;stroke-width:1;"/><rect fill="#EDE7F6" height="33.9688" rx="12.5" ry="12.5" style="stroke:#B39DDB;stroke-width:0.5;" width="105.7051" x="150.5933" y="453.1094"/><text fill="#000000" font-family="Arial" font-size="12" lengthAdjust="spacing" textLength="85.7051" x="160.5933" y="474.248">Ingresa precio</text><polygon fill="#F1F1F1" points="162.4429,507.0781,244.4487,507.0781,256.4487,519.0781,244.4487,531.0781,162.4429,531.0781,150.4429,519.0781,162.4429,507.0781" style="stroke:#181818;stroke-width:0.5;"/><text fill="#000000" font-family="Arial" font-size="11" lengthAdjust="spacing" textLength="82.0059" x="162.4429" y="522.8862">&#191;Precio v&#225;lido?</text><text fill="#000000" font-family="Arial" font-size="11" lengthAdjust="spacing" textLength="10.0386" x="140.4043" y="516.4839">S&#237;</text><text fill="#000000" font-family="Arial" font-size="11" lengthAdjust="spacing" textLength="14.9585" x="256.4487" y="516.4839">No</text><rect fill="#E3F2FD" height="33.9688" rx="12.5" ry="12.5" style="stroke:#64B5F6;stroke-width:0.5;" width="124.5488" x="75.231" y="541.0781"/><text fill="#000000" font-family="Arial" font-size="12" lengthAdjust="spacing" textLength="104.5488" x="85.231" y="562.2168">Solicitar cantidad</text><rect fill="#E3F2FD" height="33.9688" rx="12.5" ry="12.5" style="stroke:#64B5F6;stroke-width:0.5;" width="99.2129" x="219.7798" y="541.0781"/><text fill="#000000" font-family="Arial" font-size="12" lengthAdjust="spacing" textLength="79.2129" x="229.7798" y="562.2168">Mostrar error</text><rect fill="#212121" height="33.9688" rx="12.5" ry="12.5" style="stroke:#212121;stroke-width:0.5;" width="37.8418" x="250.4653" y="595.0469"/><text fill="#FFFFFF" font-family="Arial" font-size="12" lengthAdjust="spacing" textLength="17.8418" x="260.4653" y="616.1855">Fin</text><ellipse cx="269.3862" cy="660.0156" fill="none" rx="11" ry="11" style="stroke:#222222;stroke-width:1;"/><ellipse cx="269.3862" cy="660.0156" fill="#222222" rx="6" ry="6" style="stroke:#222222;stroke-width:1;"/><rect fill="#EDE7F6" height="33.9688" rx="12.5" ry="12.5" style="stroke:#B39DDB;stroke-width:0.5;" width="159.3887" x="123.7515" y="691.0156"/><text fill="#000000" font-family="Arial" font-size="12" lengthAdjust="spacing" textLength="139.3887" x="133.7515" y="712.1543">Ingresa cantidad inicial</text><polygon fill="#F1F1F1" points="154.5823,744.9844,252.3093,744.9844,264.3093,756.9844,252.3093,768.9844,154.5823,768.9844,142.5823,756.9844,154.5823,744.9844" style="stroke:#181818;stroke-width:0.5;"/><text fill="#000000" font-family="Arial" font-size="11" lengthAdjust="spacing" textLength="97.7271" x="154.5823" y="760.7925">&#191;Cantidad v&#225;lida?</text><text fill="#000000" font-family="Arial" font-size="11" lengthAdjust="spacing" textLength="10.0386" x="132.5437" y="754.3901">S&#237;</text><text fill="#000000" font-family="Arial" font-size="11" lengthAdjust="spacing" textLength="14.9585" x="264.3093" y="754.3901">No</text><rect fill="#E3F2FD" height="33.9688" rx="12.5" ry="12.5" style="stroke:#64B5F6;stroke-width:0.5;" width="166.7598" x="43.5728" y="778.9844"/><text fill="#000000" font-family="Arial" font-size="12" lengthAdjust="spacing" textLength="146.7598" x="53.5728" y="800.123">Guardar producto en BD</text><rect fill="#E3F2FD" height="33.9688" rx="12.5" ry="12.5" style="stroke:#64B5F6;stroke-width:0.5;" width="147.6465" x="53.1294" y="832.9531"/><text fill="#000000" font-family="Arial" font-size="12" lengthAdjust="spacing" textLength="127.6465" x="63.1294" y="854.0918">Mostrar confirmaci&#243;n</text><rect fill="#E3F2FD" height="33.9688" rx="12.5" ry="12.5" style="stroke:#64B5F6;stroke-width:0.5;" width="99.2129" x="230.3325" y="778.9844"/><text fill="#000000" font-family="Arial" font-size="12" lengthAdjust="spacing" textLength="79.2129" x="240.3325" y="800.123">Mostrar error</text><rect fill="#212121" height="33.9688" rx="12.5" ry="12.5" style="stroke:#212121;stroke-width:0.5;" width="37.8418" x="261.0181" y="832.9531"/><text fill="#FFFFFF" font-family="Arial" font-size="12" lengthAdjust="spacing" textLength="17.8418" x="271.0181" y="854.0918">Fin</text><ellipse cx="279.939" cy="897.9219" fill="none" rx="11" ry="11" style="stroke:#222222;stroke-width:1;"/><ellipse cx="279.939" cy="897.9219" fill="#222222" rx="6" ry="6" style="stroke:#222222;stroke-width:1;"/><rect fill="#EDE7F6" height="33.9688" rx="12.5" ry="12.5" style="stroke:#B39DDB;stroke-width:0.5;" width="142.1211" x="132.3853" y="977.3242"/><text fill="#000000" font-family="Arial" font-size="12" lengthAdjust="spacing" textLength="122.1211" x="142.3853" y="998.4629">Selecciona producto</text><rect fill="#EDE7F6" height="33.9688" rx="12.5" ry="12.5" style="stroke:#B39DDB;stroke-width:0.5;" width="107.2402" x="149.8257" y="1031.293"/><text fill="#000000" font-family="Arial" font-size="12" lengthAdjust="spacing" textLength="87.2402" x="159.8257" y="1052.4316">Modifica datos</text><rect fill="#E3F2FD" height="33.9688" rx="12.5" ry="12.5" style="stroke:#64B5F6;stroke-width:0.5;" width="123.0957" x="141.8979" y="1100.2617"/><text fill="#000000" font-family="Arial" font-size="12" lengthAdjust="spacing" textLength="103.0957" x="151.8979" y="1121.4004">Guardar cambios</text><rect fill="#E3F2FD" height="33.9688" rx="12.5" ry="12.5" style="stroke:#64B5F6;stroke-width:0.5;" width="146.7676" x="130.062" y="1154.2305"/><text fill="#000000" font-family="Arial" font-size="12" lengthAdjust="spacing" textLength="126.7676" x="140.062" y="1175.3691">Confirmaci&#243;n edici&#243;n</text><polygon fill="#F1F1F1" points="162.4294,928.9219,244.4622,928.9219,256.4622,940.9219,244.4622,952.9219,162.4294,952.9219,150.4294,940.9219,162.4294,928.9219" style="stroke:#181818;stroke-width:0.5;"/><text fill="#000000" font-family="Arial" font-size="11" lengthAdjust="spacing" textLength="10.0386" x="207.4458" y="963.1323">S&#237;</text><text fill="#000000" font-family="Arial" font-size="11" lengthAdjust="spacing" textLength="82.0327" x="162.4294" y="944.73">&#191;Desea editar?</text><text fill="#000000" font-family="Arial" font-size="11" lengthAdjust="spacing" textLength="14.9585" x="256.4622" y="938.3276">No</text><polygon fill="#F1F1F1" points="203.4458,1208.1992,215.4458,1220.1992,203.4458,1232.1992,191.4458,1220.1992,203.4458,1208.1992" style="stroke:#181818;stroke-width:0.5;"/><rect fill="#212121" height="33.9688" rx="12.5" ry="12.5" style="stroke:#212121;stroke-width:0.5;" width="37.8418" x="184.5249" y="1252.1992"/><text fill="#FFFFFF" font-family="Arial" font-size="12" lengthAdjust="spacing" textLength="17.8418" x="194.5249" y="1273.3379">Fin</text><line style="stroke:#181818;stroke-width:1;" x1="203.4458" x2="203.4458" y1="87.2656" y2="107.2656"/><polygon fill="#181818" points="199.4458,97.2656,203.4458,107.2656,207.4458,97.2656,203.4458,101.2656" style="stroke:#181818;stroke-width:1;"/><line style="stroke:#181818;stroke-width:1;" x1="203.4458" x2="203.4458" y1="141.2344" y2="161.2344"/><polygon fill="#181818" points="199.4458,151.2344,203.4458,161.2344,207.4458,151.2344,203.4458,155.2344" style="stroke:#181818;stroke-width:1;"/><line style="stroke:#181818;stroke-width:1;" x1="203.4458" x2="203.4458" y1="195.2031" y2="215.2031"/><polygon fill="#181818" points="199.4458,205.2031,203.4458,215.2031,207.4458,205.2031,203.4458,209.2031" style="stroke:#181818;stroke-width:1;"/><line style="stroke:#181818;stroke-width:1;" x1="271.5432" x2="271.5432" y1="337.1406" y2="357.1406"/><polygon fill="#181818" points="267.5432,347.1406,271.5432,357.1406,275.5432,347.1406,271.5432,351.1406" style="stroke:#181818;stroke-width:1;"/><line style="stroke:#181818;stroke-width:1;" x1="271.5432" x2="271.5432" y1="391.1094" y2="411.1094"/><polygon fill="#181818" points="267.5432,401.1094,271.5432,411.1094,275.5432,401.1094,271.5432,405.1094" style="stroke:#181818;stroke-width:1;"/><line style="stroke:#181818;stroke-width:1;" x1="145.3484" x2="135.3484" y1="281.1719" y2="281.1719"/><line style="stroke:#181818;stroke-width:1;" x1="135.3484" x2="135.3484" y1="281.1719" y2="303.1719"/><polygon fill="#181818" points="131.3484,293.1719,135.3484,303.1719,139.3484,293.1719,135.3484,297.1719" style="stroke:#181818;stroke-width:1;"/><line style="stroke:#181818;stroke-width:1;" x1="261.5432" x2="271.5432" y1="281.1719" y2="281.1719"/><line style="stroke:#181818;stroke-width:1;" x1="271.5432" x2="271.5432" y1="281.1719" y2="303.1719"/><polygon fill="#181818" points="267.5432,293.1719,271.5432,303.1719,275.5432,293.1719,271.5432,297.1719" style="stroke:#181818;stroke-width:1;"/><line style="stroke:#181818;stroke-width:1;" x1="135.3484" x2="135.3484" y1="337.1406" y2="438.1094"/><line style="stroke:#181818;stroke-width:1;" x1="135.3484" x2="203.4458" y1="438.1094" y2="438.1094"/><line style="stroke:#181818;stroke-width:1;" x1="203.4458" x2="203.4458" y1="438.1094" y2="453.1094"/><polygon fill="#181818" points="199.4458,443.1094,203.4458,453.1094,207.4458,443.1094,203.4458,447.1094" style="stroke:#181818;stroke-width:1;"/><line style="stroke:#181818;stroke-width:1;" x1="203.4458" x2="203.4458" y1="249.1719" y2="269.1719"/><polygon fill="#181818" points="199.4458,259.1719,203.4458,269.1719,207.4458,259.1719,203.4458,263.1719" style="stroke:#181818;stroke-width:1;"/><line style="stroke:#181818;stroke-width:1;" x1="269.3862" x2="269.3862" y1="575.0469" y2="595.0469"/><polygon fill="#181818" points="265.3862,585.0469,269.3862,595.0469,273.3862,585.0469,269.3862,589.0469" style="stroke:#181818;stroke-width:1;"/><line style="stroke:#181818;stroke-width:1;" x1="269.3862" x2="269.3862" y1="629.0156" y2="649.0156"/><polygon fill="#181818" points="265.3862,639.0156,269.3862,649.0156,273.3862,639.0156,269.3862,643.0156" style="stroke:#181818;stroke-width:1;"/><line style="stroke:#181818;stroke-width:1;" x1="150.4429" x2="137.5054" y1="519.0781" y2="519.0781"/><line style="stroke:#181818;stroke-width:1;" x1="137.5054" x2="137.5054" y1="519.0781" y2="541.0781"/><polygon fill="#181818" points="133.5054,531.0781,137.5054,541.0781,141.5054,531.0781,137.5054,535.0781" style="stroke:#181818;stroke-width:1;"/><line style="stroke:#181818;stroke-width:1;" x1="256.4487" x2="269.3862" y1="519.0781" y2="519.0781"/><line style="stroke:#181818;stroke-width:1;" x1="269.3862" x2="269.3862" y1="519.0781" y2="541.0781"/><polygon fill="#181818" points="265.3862,531.0781,269.3862,541.0781,273.3862,531.0781,269.3862,535.0781" style="stroke:#181818;stroke-width:1;"/><line style="stroke:#181818;stroke-width:1;" x1="137.5054" x2="137.5054" y1="575.0469" y2="676.0156"/><line style="stroke:#181818;stroke-width:1;" x1="137.5054" x2="203.4458" y1="676.0156" y2="676.0156"/><line style="stroke:#181818;stroke-width:1;" x1="203.4458" x2="203.4458" y1="676.0156" y2="691.0156"/><polygon fill="#181818" points="199.4458,681.0156,203.4458,691.0156,207.4458,681.0156,203.4458,685.0156" style="stroke:#181818;stroke-width:1;"/><line style="stroke:#181818;stroke-width:1;" x1="203.4458" x2="203.4458" y1="487.0781" y2="507.0781"/><polygon fill="#181818" points="199.4458,497.0781,203.4458,507.0781,207.4458,497.0781,203.4458,501.0781" style="stroke:#181818;stroke-width:1;"/><line style="stroke:#181818;stroke-width:1;" x1="126.9526" x2="126.9526" y1="812.9531" y2="832.9531"/><polygon fill="#181818" points="122.9526,822.9531,126.9526,832.9531,130.9526,822.9531,126.9526,826.9531" style="stroke:#181818;stroke-width:1;"/><line style="stroke:#181818;stroke-width:1;" x1="279.939" x2="279.939" y1="812.9531" y2="832.9531"/><polygon fill="#181818" points="275.939,822.9531,279.939,832.9531,283.939,822.9531,279.939,826.9531" style="stroke:#181818;stroke-width:1;"/><line style="stroke:#181818;stroke-width:1;" x1="279.939" x2="279.939" y1="866.9219" y2="886.9219"/><polygon fill="#181818" points="275.939,876.9219,279.939,886.9219,283.939,876.9219,279.939,880.9219" style="stroke:#181818;stroke-width:1;"/><line style="stroke:#181818;stroke-width:1;" x1="142.5823" x2="126.9526" y1="756.9844" y2="756.9844"/><line style="stroke:#181818;stroke-width:1;" x1="126.9526" x2="126.9526" y1="756.9844" y2="778.9844"/><polygon fill="#181818" points="122.9526,768.9844,126.9526,778.9844,130.9526,768.9844,126.9526,772.9844" style="stroke:#181818;stroke-width:1;"/><line style="stroke:#181818;stroke-width:1;" x1="264.3093" x2="279.939" y1="756.9844" y2="756.9844"/><line style="stroke:#181818;stroke-width:1;" x1="279.939" x2="279.939" y1="756.9844" y2="778.9844"/><polygon fill="#181818" points="275.939,768.9844,279.939,778.9844,283.939,768.9844,279.939,772.9844" style="stroke:#181818;stroke-width:1;"/><line style="stroke:#181818;stroke-width:1;" x1="126.9526" x2="126.9526" y1="866.9219" y2="913.9219"/><line style="stroke:#181818;stroke-width:1;" x1="126.9526" x2="203.4458" y1="913.9219" y2="913.9219"/><line style="stroke:#181818;stroke-width:1;" x1="203.4458" x2="203.4458" y1="913.9219" y2="928.9219"/><polygon fill="#181818" points="199.4458,918.9219,203.4458,928.9219,207.4458,918.9219,203.4458,922.9219" style="stroke:#181818;stroke-width:1;"/><line style="stroke:#181818;stroke-width:1;" x1="203.4458" x2="203.4458" y1="724.9844" y2="744.9844"/><polygon fill="#181818" points="199.4458,734.9844,203.4458,744.9844,207.4458,734.9844,203.4458,738.9844" style="stroke:#181818;stroke-width:1;"/><line style="stroke:#181818;stroke-width:1;" x1="203.4458" x2="203.4458" y1="1011.293" y2="1031.293"/><polygon fill="#181818" points="199.4458,1021.293,203.4458,1031.293,207.4458,1021.293,203.4458,1025.293" style="stroke:#181818;stroke-width:1;"/><line style="stroke:#181818;stroke-width:1;" x1="203.4458" x2="203.4458" y1="1065.2617" y2="1100.2617"/><polygon fill="#181818" points="199.4458,1090.2617,203.4458,1100.2617,207.4458,1090.2617,203.4458,1094.2617" style="stroke:#181818;stroke-width:1;"/><line style="stroke:#181818;stroke-width:1;" x1="203.4458" x2="203.4458" y1="1134.2305" y2="1154.2305"/><polygon fill="#181818" points="199.4458,1144.2305,203.4458,1154.2305,207.4458,1144.2305,203.4458,1148.2305" style="stroke:#181818;stroke-width:1;"/><line style="stroke:#181818;stroke-width:1;" x1="203.4458" x2="203.4458" y1="952.9219" y2="977.3242"/><polygon fill="#181818" points="199.4458,967.3242,203.4458,977.3242,207.4458,967.3242,203.4458,971.3242" style="stroke:#181818;stroke-width:1;"/><line style="stroke:#181818;stroke-width:1;" x1="256.4622" x2="286.8296" y1="940.9219" y2="940.9219"/><polygon fill="#181818" points="282.8296,1072.7617,286.8296,1082.7617,290.8296,1072.7617,286.8296,1076.7617" style="stroke:#181818;stroke-width:1;"/><line style="stroke:#181818;stroke-width:1;" x1="286.8296" x2="286.8296" y1="940.9219" y2="1220.1992"/><line style="stroke:#181818;stroke-width:1;" x1="286.8296" x2="215.4458" y1="1220.1992" y2="1220.1992"/><polygon fill="#181818" points="225.4458,1216.1992,215.4458,1220.1992,225.4458,1224.1992,221.4458,1220.1992" style="stroke:#181818;stroke-width:1;"/><line style="stroke:#181818;stroke-width:1;" x1="203.4458" x2="203.4458" y1="1188.1992" y2="1208.1992"/><polygon fill="#181818" points="199.4458,1198.1992,203.4458,1208.1992,207.4458,1198.1992,203.4458,1202.1992" style="stroke:#181818;stroke-width:1;"/><line style="stroke:#181818;stroke-width:1;" x1="203.4458" x2="203.4458" y1="1232.1992" y2="1252.1992"/><polygon fill="#181818" points="199.4458,1242.1992,203.4458,1252.1992,207.4458,1242.1992,203.4458,1246.1992" style="stroke:#181818;stroke-width:1;"/><?plantuml-src jPJFJjj04CRl-nGZUY0Sa20GggQ8AexZjeT6Y8W7cEnkmeZrJhIx1j6g3zC7uDG7gDIyMDTs0euJAYxOfztvFDzl_iY1Wj7mvVhmw1WEuKhFoGV7e3HSEbQ53EoXS-srWypm_O4G_fRi0XtcC4LvEtTSM3LammxUPTNJKFWRL7nFTWupD5ut8gcUOM52nZQCCTSmS8H6Y7qO-K0cUYwqyspHqFUO8XvZ_a0BRgH06UYEmiFvUH7nBYxWXm18saoZTFG-EoiZx9Hsgzlav4EQ9l7sgfOw6mli7ecVOgU1V_11vozQd6JTB6rRd9qclShubHO1NT1MlMJIFIxV62bRjjdlbl6JSiEujsci27EsQhTNagIZB6ddFUqEUbcLPX--MfB4rKHWoc7vsm9xMJWM_Jhq4Peb2T4VIAdZKg41JsKpiLJKWnFzYJPQngyimjvg1T4zBU1UGrhcdplj4IpdKwVZeXfOh8HD7SsWy_VFk1RTBNyPKlpf0CADjj2PB1yFOddz2Pi86p5Z2hscNirQwBYnq1bpfVp6DPDsZjs6B0Opigrw0NpWXOW7cZMOdrqsCI-h-rTWIhI15Agt1btx09NJHBEDF5mhQcZSWlvSe5DLP-lXG0mcQPjeZIlPpiZbA2dkqXjLLuEdsci4hSf-RdVwUH5tB5K545EHH50O_uoRiNN54lCfrS4cth1POWdmlrhN0zcgwHy0?></g></svg>