<svg xmlns="http://www.w3.org/2000/svg" xmlns:xlink="http://www.w3.org/1999/xlink" contentStyleType="text/css" data-diagram-type="ACTIVITY" height="798px" preserveAspectRatio="none" style="width:491px;height:798px;background:#FAFAFA;" version="1.1" viewBox="0 0 491 798" width="491px" zoomAndPan="magnify"><?plantuml 1.2026.3beta6?><defs/><g><rect fill="#FAFAFA" height="798" style="stroke:none;stroke-width:1;" width="491" x="0" y="0"/><g class="title" data-source-line="1"><text fill="#000000" font-family="Arial" font-size="14" font-weight="700" lengthAdjust="spacing" textLength="430.001" x="29.7798" y="32.9951">HU-03 - Actualizaci&#243;n autom&#225;tica de stock (User Flow)</text></g><rect fill="#263238" height="33.9688" rx="12.5" ry="12.5" style="stroke:#263238;stroke-width:0.5;" width="51.752" x="222.8599" y="53.2969"/><text fill="#FFFFFF" font-family="Arial" font-size="12" lengthAdjust="spacing" textLength="31.752" x="232.8599" y="74.4355">Inicio</text><rect fill="#F3E5F5" height="33.9688" rx="12.5" ry="12.5" style="stroke:#AB47BC;stroke-width:0.5;" width="112.8125" x="192.3296" y="107.2656"/><text fill="#4A148C" font-family="Arial" font-size="12" lengthAdjust="spacing" textLength="92.8125" x="202.3296" y="128.4043">Registrar venta</text><rect fill="#E8F5E9" height="33.9688" rx="12.5" ry="12.5" style="stroke:#43A047;stroke-width:0.5;" width="192.8926" x="152.2896" y="161.2344"/><text fill="#1B5E20" font-family="Arial" font-size="12" lengthAdjust="spacing" textLength="172.8926" x="162.2896" y="182.373">Consultar stock del producto</text><polygon fill="#F1F1F1" points="197.7695,215.2031,299.7021,215.2031,311.7021,227.2031,299.7021,239.2031,197.7695,239.2031,185.7695,227.2031,197.7695,215.2031" style="stroke:#181818;stroke-width:0.5;"/><text fill="#000000" font-family="Arial" font-size="11" lengthAdjust="spacing" textLength="101.9326" x="197.7695" y="231.0112">&#191;Stock disponible?</text><text fill="#000000" font-family="Arial" font-size="11" lengthAdjust="spacing" textLength="10.0386" x="175.731" y="224.6089">S&#237;</text><text fill="#000000" font-family="Arial" font-size="11" lengthAdjust="spacing" textLength="14.9585" x="311.7021" y="224.6089">No</text><rect fill="#E8F5E9" height="33.9688" rx="12.5" ry="12.5" style="stroke:#43A047;stroke-width:0.5;" width="179.1699" x="54.3101" y="249.2031"/><text fill="#1B5E20" font-family="Arial" font-size="12" lengthAdjust="spacing" textLength="159.1699" x="64.3101" y="270.3418">Validar cantidad solicitada</text><rect fill="#E8F5E9" height="33.9688" rx="12.5" ry="12.5" style="stroke:#43A047;stroke-width:0.5;" width="200.1934" x="253.48" y="249.2031"/><text fill="#1B5E20" font-family="Arial" font-size="12" lengthAdjust="spacing" textLength="180.1934" x="263.48" y="270.3418">Mostrar "Sin stock disponible"</text><rect fill="#E8F5E9" height="33.9688" rx="12.5" ry="12.5" style="stroke:#43A047;stroke-width:0.5;" width="111.7637" x="297.6948" y="303.1719"/><text fill="#1B5E20" font-family="Arial" font-size="12" lengthAdjust="spacing" textLength="91.7637" x="307.6948" y="324.3105">Bloquear venta</text><rect fill="#263238" height="33.9688" rx="12.5" ry="12.5" style="stroke:#263238;stroke-width:0.5;" width="37.8418" x="334.6558" y="357.1406"/><text fill="#FFFFFF" font-family="Arial" font-size="12" lengthAdjust="spacing" textLength="17.8418" x="344.6558" y="378.2793">Fin</text><ellipse cx="353.5767" cy="422.1094" fill="none" rx="11" ry="11" style="stroke:#222222;stroke-width:1;"/><ellipse cx="353.5767" cy="422.1094" fill="#222222" rx="6" ry="6" style="stroke:#222222;stroke-width:1;"/><polygon fill="#F1F1F1" points="189.6377,453.1094,307.834,453.1094,319.834,465.1094,307.834,477.1094,189.6377,477.1094,177.6377,465.1094,189.6377,453.1094" style="stroke:#181818;stroke-width:0.5;"/><text fill="#000000" font-family="Arial" font-size="11" lengthAdjust="spacing" textLength="118.1963" x="189.6377" y="468.9175">&#191;Cantidad suficiente?</text><text fill="#000000" font-family="Arial" font-size="11" lengthAdjust="spacing" textLength="10.0386" x="167.5991" y="462.5151">S&#237;</text><text fill="#000000" font-family="Arial" font-size="11" lengthAdjust="spacing" textLength="14.9585" x="319.834" y="462.5151">No</text><rect fill="#E8F5E9" height="33.9688" rx="12.5" ry="12.5" style="stroke:#43A047;stroke-width:0.5;" width="227.6914" x="16" y="487.1094"/><text fill="#1B5E20" font-family="Arial" font-size="12" lengthAdjust="spacing" textLength="207.6914" x="26" y="508.248">Descontar stock autom&#225;ticamente</text><rect fill="#E8F5E9" height="33.9688" rx="12.5" ry="12.5" style="stroke:#43A047;stroke-width:0.5;" width="184.3262" x="37.6826" y="541.0781"/><text fill="#1B5E20" font-family="Arial" font-size="12" lengthAdjust="spacing" textLength="164.3262" x="47.6826" y="562.2168">Actualizar inventario en BD</text><rect fill="#E8F5E9" height="33.9688" rx="12.5" ry="12.5" style="stroke:#43A047;stroke-width:0.5;" width="174.2422" x="42.7246" y="595.0469"/><text fill="#1B5E20" font-family="Arial" font-size="12" lengthAdjust="spacing" textLength="154.2422" x="52.7246" y="616.1855">Mostrar stock actualizado</text><rect fill="#E8F5E9" height="33.9688" rx="12.5" ry="12.5" style="stroke:#43A047;stroke-width:0.5;" width="207.8691" x="263.6914" y="487.1094"/><text fill="#1B5E20" font-family="Arial" font-size="12" lengthAdjust="spacing" textLength="187.8691" x="273.6914" y="508.248">Mostrar "Cantidad insuficiente"</text><rect fill="#E8F5E9" height="33.9688" rx="12.5" ry="12.5" style="stroke:#43A047;stroke-width:0.5;" width="111.7637" x="311.7441" y="541.0781"/><text fill="#1B5E20" font-family="Arial" font-size="12" lengthAdjust="spacing" textLength="91.7637" x="321.7441" y="562.2168">Bloquear venta</text><rect fill="#263238" height="33.9688" rx="12.5" ry="12.5" style="stroke:#263238;stroke-width:0.5;" width="37.8418" x="348.7051" y="595.0469"/><text fill="#FFFFFF" font-family="Arial" font-size="12" lengthAdjust="spacing" textLength="17.8418" x="358.7051" y="616.1855">Fin</text><ellipse cx="367.626" cy="660.0156" fill="none" rx="11" ry="11" style="stroke:#222222;stroke-width:1;"/><ellipse cx="367.626" cy="660.0156" fill="#222222" rx="6" ry="6" style="stroke:#222222;stroke-width:1;"/><rect fill="#E8F5E9" height="33.9688" rx="12.5" ry="12.5" style="stroke:#43A047;stroke-width:0.5;" width="165.043" x="166.2144" y="691.0156"/><text fill="#1B5E20" font-family="Arial" font-size="12" lengthAdjust="spacing" textLength="145.043" x="176.2144" y="712.1543">Confirmar venta exitosa</text><rect fill="#263238" height="33.9688" rx="12.5" ry="12.5" style="stroke:#263238;stroke-width:0.5;" width="37.8418" x="229.8149" y="744.9844"/><text fill="#FFFFFF" font-family="Arial" font-size="12" lengthAdjust="spacing" textLength="17.8418" x="239.8149" y="766.123">Fin</text><line style="stroke:#181818;stroke-width:1;" x1="248.7358" x2="248.7358" y1="87.2656" y2="107.2656"/><polygon fill="#181818" points="244.7358,97.2656,248.7358,107.2656,252.7358,97.2656,248.7358,101.2656" style="stroke:#181818;stroke-width:1;"/><line style="stroke:#181818;stroke-width:1;" x1="248.7358" x2="248.7358" y1="141.2344" y2="161.2344"/><polygon fill="#181818" points="244.7358,151.2344,248.7358,161.2344,252.7358,151.2344,248.7358,155.2344" style="stroke:#181818;stroke-width:1;"/><line style="stroke:#181818;stroke-width:1;" x1="353.5767" x2="353.5767" y1="283.1719" y2="303.1719"/><polygon fill="#181818" points="349.5767,293.1719,353.5767,303.1719,357.5767,293.1719,353.5767,297.1719" style="stroke:#181818;stroke-width:1;"/><line style="stroke:#181818;stroke-width:1;" x1="353.5767" x2="353.5767" y1="337.1406" y2="357.1406"/><polygon fill="#181818" points="349.5767,347.1406,353.5767,357.1406,357.5767,347.1406,353.5767,351.1406" style="stroke:#181818;stroke-width:1;"/><line style="stroke:#181818;stroke-width:1;" x1="353.5767" x2="353.5767" y1="391.1094" y2="411.1094"/><polygon fill="#181818" points="349.5767,401.1094,353.5767,411.1094,357.5767,401.1094,353.5767,405.1094" style="stroke:#181818;stroke-width:1;"/><line style="stroke:#181818;stroke-width:1;" x1="185.7695" x2="143.895" y1="227.2031" y2="227.2031"/><line style="stroke:#181818;stroke-width:1;" x1="143.895" x2="143.895" y1="227.2031" y2="249.2031"/><polygon fill="#181818" points="139.895,239.2031,143.895,249.2031,147.895,239.2031,143.895,243.2031" style="stroke:#181818;stroke-width:1;"/><line style="stroke:#181818;stroke-width:1;" x1="311.7021" x2="353.5767" y1="227.2031" y2="227.2031"/><line style="stroke:#181818;stroke-width:1;" x1="353.5767" x2="353.5767" y1="227.2031" y2="249.2031"/><polygon fill="#181818" points="349.5767,239.2031,353.5767,249.2031,357.5767,239.2031,353.5767,243.2031" style="stroke:#181818;stroke-width:1;"/><line style="stroke:#181818;stroke-width:1;" x1="143.895" x2="143.895" y1="283.1719" y2="438.1094"/><line style="stroke:#181818;stroke-width:1;" x1="143.895" x2="248.7358" y1="438.1094" y2="438.1094"/><line style="stroke:#181818;stroke-width:1;" x1="248.7358" x2="248.7358" y1="438.1094" y2="453.1094"/><polygon fill="#181818" points="244.7358,443.1094,248.7358,453.1094,252.7358,443.1094,248.7358,447.1094" style="stroke:#181818;stroke-width:1;"/><line style="stroke:#181818;stroke-width:1;" x1="248.7358" x2="248.7358" y1="195.2031" y2="215.2031"/><polygon fill="#181818" points="244.7358,205.2031,248.7358,215.2031,252.7358,205.2031,248.7358,209.2031" style="stroke:#181818;stroke-width:1;"/><line style="stroke:#181818;stroke-width:1;" x1="129.8457" x2="129.8457" y1="521.0781" y2="541.0781"/><polygon fill="#181818" points="125.8457,531.0781,129.8457,541.0781,133.8457,531.0781,129.8457,535.0781" style="stroke:#181818;stroke-width:1;"/><line style="stroke:#181818;stroke-width:1;" x1="129.8457" x2="129.8457" y1="575.0469" y2="595.0469"/><polygon fill="#181818" points="125.8457,585.0469,129.8457,595.0469,133.8457,585.0469,129.8457,589.0469" style="stroke:#181818;stroke-width:1;"/><line style="stroke:#181818;stroke-width:1;" x1="367.626" x2="367.626" y1="521.0781" y2="541.0781"/><polygon fill="#181818" points="363.626,531.0781,367.626,541.0781,371.626,531.0781,367.626,535.0781" style="stroke:#181818;stroke-width:1;"/><line style="stroke:#181818;stroke-width:1;" x1="367.626" x2="367.626" y1="575.0469" y2="595.0469"/><polygon fill="#181818" points="363.626,585.0469,367.626,595.0469,371.626,585.0469,367.626,589.0469" style="stroke:#181818;stroke-width:1;"/><line style="stroke:#181818;stroke-width:1;" x1="367.626" x2="367.626" y1="629.0156" y2="649.0156"/><polygon fill="#181818" points="363.626,639.0156,367.626,649.0156,371.626,639.0156,367.626,643.0156" style="stroke:#181818;stroke-width:1;"/><line style="stroke:#181818;stroke-width:1;" x1="177.6377" x2="129.8457" y1="465.1094" y2="465.1094"/><line style="stroke:#181818;stroke-width:1;" x1="129.8457" x2="129.8457" y1="465.1094" y2="487.1094"/><polygon fill="#181818" points="125.8457,477.1094,129.8457,487.1094,133.8457,477.1094,129.8457,481.1094" style="stroke:#181818;stroke-width:1;"/><line style="stroke:#181818;stroke-width:1;" x1="319.834" x2="367.626" y1="465.1094" y2="465.1094"/><line style="stroke:#181818;stroke-width:1;" x1="367.626" x2="367.626" y1="465.1094" y2="487.1094"/><polygon fill="#181818" points="363.626,477.1094,367.626,487.1094,371.626,477.1094,367.626,481.1094" style="stroke:#181818;stroke-width:1;"/><line style="stroke:#181818;stroke-width:1;" x1="129.8457" x2="129.8457" y1="629.0156" y2="676.0156"/><line style="stroke:#181818;stroke-width:1;" x1="129.8457" x2="248.7358" y1="676.0156" y2="676.0156"/><line style="stroke:#181818;stroke-width:1;" x1="248.7358" x2="248.7358" y1="676.0156" y2="691.0156"/><polygon fill="#181818" points="244.7358,681.0156,248.7358,691.0156,252.7358,681.0156,248.7358,685.0156" style="stroke:#181818;stroke-width:1;"/><line style="stroke:#181818;stroke-width:1;" x1="248.7358" x2="248.7358" y1="724.9844" y2="744.9844"/><polygon fill="#181818" points="244.7358,734.9844,248.7358,744.9844,252.7358,734.9844,248.7358,738.9844" style="stroke:#181818;stroke-width:1;"/><?plantuml-src hLEzRjim4Dxv58TqY3q4i2sh_ccGGh8bj4Cpn4XtHgISWobI9IcdQT67wGDqwWCKg5-ib6Mhabm36IeD4dbtty_nQD4A3k_khmOUN46Gs88A_48JtFsKG0khijrtYma5ni5ObMoWTs-uXbYefpuXPeCofvfcy42JpLghGhA54ah3gpWetqQ6UQHCFQ5SGqg5uOt8agUq43PMqjxIZ4EWaGf2BY4o5eKoa7DjbDmhOsxPamNVKiYfu9Rs6q0qiRX5-tnzNJYHDpVmbG249ygyo8_zCg8qu_gm6uJZIRXmkwMCmzuu68wdvTvTLQwbipuQa6_adwJcsLYUdQEDfh4VpRgqOoyOZ2Tjsc7eHuxbnRIMQiibEqSyUksDl6cR8ju_NJ5rPelORnCpf9cIx8p9OUp7KHTtuCt2o6yh60pzoImieI_XlSG45PbNtpVGz4J8_8wlqLXDDMovjBICL-VhOWibZPiT5wl6at41kLQiI6m5T3WJGZ25tkzVgoeBJQuaFWZ-jW_saKlehNO_-axX_ACRC-RW4Ygj-s5Wb72gB6MqXSVT34FlLksBFgXAtyKAvL58JN7HgdFPeL2V2jwqqup6A3iTW18o9sw1wT77efPNf4wU0pgrikGcSGslUzEuprbPq6Mkhxy6b7jj6XKun73PJJqQFW0V2vbwGOzgwIZ_Yl_FJIhd8aMT7Uk1VqQhJ1k7dCBy0G00?></g></svg>