<svg xmlns="http://www.w3.org/2000/svg" xmlns:xlink="http://www.w3.org/1999/xlink" contentStyleType="text/css" data-diagram-type="ACTIVITY" height="810px" preserveAspectRatio="none" style="width:500px;height:810px;background:#FFFDF7;" version="1.1" viewBox="0 0 500 810" width="500px" zoomAndPan="magnify"><?plantuml 1.2026.3beta6?><defs/><g><rect fill="#FFFDF7" height="810" style="stroke:none;stroke-width:1;" width="500" x="0" y="0"/><g class="title" data-source-line="1"><text fill="#000000" font-family="Arial" font-size="14" font-weight="700" lengthAdjust="spacing" textLength="322.6152" x="88.0137" y="32.9951">HU-04 - Registro de compras (User Flow)</text></g><rect fill="#37474F" height="33.9688" rx="12.5" ry="12.5" style="stroke:#37474F;stroke-width:0.5;" width="51.752" x="224.1665" y="53.2969"/><text fill="#FFFFFF" font-family="Arial" font-size="12" lengthAdjust="spacing" textLength="31.752" x="234.1665" y="74.4355">Inicio</text><rect fill="#FFF3E0" height="33.9688" rx="12.5" ry="12.5" style="stroke:#FB8C00;stroke-width:0.5;" width="129.0723" x="185.5063" y="107.2656"/><text fill="#E65100" font-family="Arial" font-size="12" lengthAdjust="spacing" textLength="109.0723" x="195.5063" y="128.4043">Accede al sistema</text><rect fill="#FFF3E0" height="33.9688" rx="12.5" ry="12.5" style="stroke:#FB8C00;stroke-width:0.5;" width="203.5977" x="148.2437" y="161.2344"/><text fill="#E65100" font-family="Arial" font-size="12" lengthAdjust="spacing" textLength="183.5977" x="158.2437" y="182.373">Selecciona "Registrar compra"</text><rect fill="#FFF3E0" height="33.9688" rx="12.5" ry="12.5" style="stroke:#FB8C00;stroke-width:0.5;" width="142.1211" x="178.9819" y="215.2031"/><text fill="#E65100" font-family="Arial" font-size="12" lengthAdjust="spacing" textLength="122.1211" x="188.9819" y="236.3418">Selecciona producto</text><polygon fill="#F1F1F1" points="201.4529,269.1719,298.6321,269.1719,310.6321,281.1719,298.6321,293.1719,201.4529,293.1719,189.4529,281.1719,201.4529,269.1719" style="stroke:#181818;stroke-width:0.5;"/><text fill="#000000" font-family="Arial" font-size="11" lengthAdjust="spacing" textLength="97.1792" x="201.4529" y="284.98">&#191;Producto v&#225;lido?</text><text fill="#000000" font-family="Arial" font-size="11" lengthAdjust="spacing" textLength="10.0386" x="179.4143" y="278.5776">S&#237;</text><text fill="#000000" font-family="Arial" font-size="11" lengthAdjust="spacing" textLength="14.9585" x="310.6321" y="278.5776">No</text><rect fill="#E3F2FD" height="33.9688" rx="12.5" ry="12.5" style="stroke:#1E88E5;stroke-width:0.5;" width="124.5488" x="90.105" y="303.1719"/><text fill="#0D47A1" font-family="Arial" font-size="12" lengthAdjust="spacing" textLength="104.5488" x="100.105" y="324.3105">Solicitar cantidad</text><rect fill="#E3F2FD" height="33.9688" rx="12.5" ry="12.5" style="stroke:#1E88E5;stroke-width:0.5;" width="226.1035" x="234.6538" y="303.1719"/><text fill="#0D47A1" font-family="Arial" font-size="12" lengthAdjust="spacing" textLength="206.1035" x="244.6538" y="324.3105">Mostrar error "Producto no v&#225;lido"</text><rect fill="#37474F" height="33.9688" rx="12.5" ry="12.5" style="stroke:#37474F;stroke-width:0.5;" width="37.8418" x="328.7847" y="357.1406"/><text fill="#FFFFFF" font-family="Arial" font-size="12" lengthAdjust="spacing" textLength="17.8418" x="338.7847" y="378.2793">Fin</text><ellipse cx="347.7056" cy="422.1094" fill="none" rx="11" ry="11" style="stroke:#222222;stroke-width:1;"/><ellipse cx="347.7056" cy="422.1094" fill="#222222" rx="6" ry="6" style="stroke:#222222;stroke-width:1;"/><rect fill="#FFF3E0" height="33.9688" rx="12.5" ry="12.5" style="stroke:#FB8C00;stroke-width:0.5;" width="120.6816" x="189.7017" y="453.1094"/><text fill="#E65100" font-family="Arial" font-size="12" lengthAdjust="spacing" textLength="100.6816" x="199.7017" y="474.248">Ingresa cantidad</text><polygon fill="#F1F1F1" points="201.179,507.0781,298.906,507.0781,310.906,519.0781,298.906,531.0781,201.179,531.0781,189.179,519.0781,201.179,507.0781" style="stroke:#181818;stroke-width:0.5;"/><text fill="#000000" font-family="Arial" font-size="11" lengthAdjust="spacing" textLength="97.7271" x="201.179" y="522.8862">&#191;Cantidad v&#225;lida?</text><text fill="#000000" font-family="Arial" font-size="11" lengthAdjust="spacing" textLength="10.0386" x="179.1404" y="516.4839">S&#237;</text><text fill="#000000" font-family="Arial" font-size="11" lengthAdjust="spacing" textLength="14.9585" x="310.906" y="516.4839">No</text><rect fill="#E3F2FD" height="33.9688" rx="12.5" ry="12.5" style="stroke:#1E88E5;stroke-width:0.5;" width="179.9902" x="38.8867" y="541.0781"/><text fill="#0D47A1" font-family="Arial" font-size="12" lengthAdjust="spacing" textLength="159.9902" x="48.8867" y="562.2168">Registrar fecha de compra</text><rect fill="#E3F2FD" height="33.9688" rx="12.5" ry="12.5" style="stroke:#1E88E5;stroke-width:0.5;" width="225.7637" x="16" y="595.0469"/><text fill="#0D47A1" font-family="Arial" font-size="12" lengthAdjust="spacing" textLength="205.7637" x="26" y="616.1855">Aumentar stock autom&#225;ticamente</text><rect fill="#E3F2FD" height="33.9688" rx="12.5" ry="12.5" style="stroke:#1E88E5;stroke-width:0.5;" width="184.3262" x="36.7188" y="649.0156"/><text fill="#0D47A1" font-family="Arial" font-size="12" lengthAdjust="spacing" textLength="164.3262" x="46.7188" y="670.1543">Actualizar inventario en BD</text><rect fill="#E3F2FD" height="33.9688" rx="12.5" ry="12.5" style="stroke:#1E88E5;stroke-width:0.5;" width="147.6465" x="55.0586" y="702.9844"/><text fill="#0D47A1" font-family="Arial" font-size="12" lengthAdjust="spacing" textLength="127.6465" x="65.0586" y="724.123">Mostrar confirmaci&#243;n</text><rect fill="#E3F2FD" height="33.9688" rx="12.5" ry="12.5" style="stroke:#1E88E5;stroke-width:0.5;" width="218.8789" x="261.7637" y="541.0781"/><text fill="#0D47A1" font-family="Arial" font-size="12" lengthAdjust="spacing" textLength="198.8789" x="271.7637" y="562.2168">Mostrar error "Cantidad inv&#225;lida"</text><rect fill="#37474F" height="33.9688" rx="12.5" ry="12.5" style="stroke:#37474F;stroke-width:0.5;" width="37.8418" x="352.2822" y="595.0469"/><text fill="#FFFFFF" font-family="Arial" font-size="12" lengthAdjust="spacing" textLength="17.8418" x="362.2822" y="616.1855">Fin</text><ellipse cx="371.2031" cy="660.0156" fill="none" rx="11" ry="11" style="stroke:#222222;stroke-width:1;"/><ellipse cx="371.2031" cy="660.0156" fill="#222222" rx="6" ry="6" style="stroke:#222222;stroke-width:1;"/><rect fill="#37474F" height="33.9688" rx="12.5" ry="12.5" style="stroke:#37474F;stroke-width:0.5;" width="37.8418" x="231.1216" y="756.9531"/><text fill="#FFFFFF" font-family="Arial" font-size="12" lengthAdjust="spacing" textLength="17.8418" x="241.1216" y="778.0918">Fin</text><line style="stroke:#181818;stroke-width:1;" x1="250.0425" x2="250.0425" y1="87.2656" y2="107.2656"/><polygon fill="#181818" points="246.0425,97.2656,250.0425,107.2656,254.0425,97.2656,250.0425,101.2656" style="stroke:#181818;stroke-width:1;"/><line style="stroke:#181818;stroke-width:1;" x1="250.0425" x2="250.0425" y1="141.2344" y2="161.2344"/><polygon fill="#181818" points="246.0425,151.2344,250.0425,161.2344,254.0425,151.2344,250.0425,155.2344" style="stroke:#181818;stroke-width:1;"/><line style="stroke:#181818;stroke-width:1;" x1="250.0425" x2="250.0425" y1="195.2031" y2="215.2031"/><polygon fill="#181818" points="246.0425,205.2031,250.0425,215.2031,254.0425,205.2031,250.0425,209.2031" style="stroke:#181818;stroke-width:1;"/><line style="stroke:#181818;stroke-width:1;" x1="347.7056" x2="347.7056" y1="337.1406" y2="357.1406"/><polygon fill="#181818" points="343.7056,347.1406,347.7056,357.1406,351.7056,347.1406,347.7056,351.1406" style="stroke:#181818;stroke-width:1;"/><line style="stroke:#181818;stroke-width:1;" x1="347.7056" x2="347.7056" y1="391.1094" y2="411.1094"/><polygon fill="#181818" points="343.7056,401.1094,347.7056,411.1094,351.7056,401.1094,347.7056,405.1094" style="stroke:#181818;stroke-width:1;"/><line style="stroke:#181818;stroke-width:1;" x1="189.4529" x2="152.3794" y1="281.1719" y2="281.1719"/><line style="stroke:#181818;stroke-width:1;" x1="152.3794" x2="152.3794" y1="281.1719" y2="303.1719"/><polygon fill="#181818" points="148.3794,293.1719,152.3794,303.1719,156.3794,293.1719,152.3794,297.1719" style="stroke:#181818;stroke-width:1;"/><line style="stroke:#181818;stroke-width:1;" x1="310.6321" x2="347.7056" y1="281.1719" y2="281.1719"/><line style="stroke:#181818;stroke-width:1;" x1="347.7056" x2="347.7056" y1="281.1719" y2="303.1719"/><polygon fill="#181818" points="343.7056,293.1719,347.7056,303.1719,351.7056,293.1719,347.7056,297.1719" style="stroke:#181818;stroke-width:1;"/><line style="stroke:#181818;stroke-width:1;" x1="152.3794" x2="152.3794" y1="337.1406" y2="438.1094"/><line style="stroke:#181818;stroke-width:1;" x1="152.3794" x2="250.0425" y1="438.1094" y2="438.1094"/><line style="stroke:#181818;stroke-width:1;" x1="250.0425" x2="250.0425" y1="438.1094" y2="453.1094"/><polygon fill="#181818" points="246.0425,443.1094,250.0425,453.1094,254.0425,443.1094,250.0425,447.1094" style="stroke:#181818;stroke-width:1;"/><line style="stroke:#181818;stroke-width:1;" x1="250.0425" x2="250.0425" y1="249.1719" y2="269.1719"/><polygon fill="#181818" points="246.0425,259.1719,250.0425,269.1719,254.0425,259.1719,250.0425,263.1719" style="stroke:#181818;stroke-width:1;"/><line style="stroke:#181818;stroke-width:1;" x1="128.8818" x2="128.8818" y1="575.0469" y2="595.0469"/><polygon fill="#181818" points="124.8818,585.0469,128.8818,595.0469,132.8818,585.0469,128.8818,589.0469" style="stroke:#181818;stroke-width:1;"/><line style="stroke:#181818;stroke-width:1;" x1="128.8818" x2="128.8818" y1="629.0156" y2="649.0156"/><polygon fill="#181818" points="124.8818,639.0156,128.8818,649.0156,132.8818,639.0156,128.8818,643.0156" style="stroke:#181818;stroke-width:1;"/><line style="stroke:#181818;stroke-width:1;" x1="128.8818" x2="128.8818" y1="682.9844" y2="702.9844"/><polygon fill="#181818" points="124.8818,692.9844,128.8818,702.9844,132.8818,692.9844,128.8818,696.9844" style="stroke:#181818;stroke-width:1;"/><line style="stroke:#181818;stroke-width:1;" x1="371.2031" x2="371.2031" y1="575.0469" y2="595.0469"/><polygon fill="#181818" points="367.2031,585.0469,371.2031,595.0469,375.2031,585.0469,371.2031,589.0469" style="stroke:#181818;stroke-width:1;"/><line style="stroke:#181818;stroke-width:1;" x1="371.2031" x2="371.2031" y1="629.0156" y2="649.0156"/><polygon fill="#181818" points="367.2031,639.0156,371.2031,649.0156,375.2031,639.0156,371.2031,643.0156" style="stroke:#181818;stroke-width:1;"/><line style="stroke:#181818;stroke-width:1;" x1="189.179" x2="128.8818" y1="519.0781" y2="519.0781"/><line style="stroke:#181818;stroke-width:1;" x1="128.8818" x2="128.8818" y1="519.0781" y2="541.0781"/><polygon fill="#181818" points="124.8818,531.0781,128.8818,541.0781,132.8818,531.0781,128.8818,535.0781" style="stroke:#181818;stroke-width:1;"/><line style="stroke:#181818;stroke-width:1;" x1="310.906" x2="371.2031" y1="519.0781" y2="519.0781"/><line style="stroke:#181818;stroke-width:1;" x1="371.2031" x2="371.2031" y1="519.0781" y2="541.0781"/><polygon fill="#181818" points="367.2031,531.0781,371.2031,541.0781,375.2031,531.0781,371.2031,535.0781" style="stroke:#181818;stroke-width:1;"/><line style="stroke:#181818;stroke-width:1;" x1="128.8818" x2="128.8818" y1="736.9531" y2="741.9531"/><line style="stroke:#181818;stroke-width:1;" x1="128.8818" x2="250.0425" y1="741.9531" y2="741.9531"/><line style="stroke:#181818;stroke-width:1;" x1="250.0425" x2="250.0425" y1="741.9531" y2="756.9531"/><polygon fill="#181818" points="246.0425,746.9531,250.0425,756.9531,254.0425,746.9531,250.0425,750.9531" style="stroke:#181818;stroke-width:1;"/><line style="stroke:#181818;stroke-width:1;" x1="250.0425" x2="250.0425" y1="487.0781" y2="507.0781"/><polygon fill="#181818" points="246.0425,497.0781,250.0425,507.0781,254.0425,497.0781,250.0425,501.0781" style="stroke:#181818;stroke-width:1;"/><?plantuml-src bLDBRjim4Dtp50Dt4NiHGFAdTjqWXHs9Q1SrYXWvm9IaRC8KQL2KWxJeONA0h7g00lN5IbcA8yana6eZQURDlFU6GoUT4l3vxZ8OmYNSYfNCd3N01J2JRYrcqBtBX0Mgp7sFa6mZzHOjfl0TsMPbJQxvZL76mZjAQKJ7DKIsHcxkfLv1WYeJjKma4ioLeqQx1QO2PbQY8kG25hdO8MnH2OUb1jzQU0rS9i8AxGGWA9C1-ayhYrolrXUPaplf7gwkSg_v-Xf-4e3vAq87SL1aZEN2FaVdavkWY1QggbZyVXGUOhTbkTL-4ls0_2AlacOFcHFfETfuGFiqQjE6yMGIZvgqGJGSpyAtqpgqJcX-ZdWm7ew7j4b13qzRp17P81urYRd4r6X-ncH8HpHkzmtwaqaKjao6e_67UT7w0hveoQGXq_Bz4UgU29dE61D-6L119ei9Ou4eJvXCbq89vgiqGgTQNxJLydPgm0PoQmtFcJFrl4oW-_VFjoe3k_sZajnywe5R2mtTvVwfvnrCbqPvaQxWy4ieEVA3tkheYV2R3js5EM2_cbADiDPRxXnxwsFxJgFObr2fM_u1CcUsnF_8X1GpMlcjnmPxqy9DbQauyCJ2ovWImTRuSjdROcPvwk-Snta5R0EOEvFk7vraMCJ52Pov79NyuGkatXqgfG7FF8_QqEV9CACJQLDaSlzRltcGHuUUflJu_tCy0Vm3?></g></svg>