<svg xmlns="http://www.w3.org/2000/svg" xmlns:xlink="http://www.w3.org/1999/xlink" contentStyleType="text/css" data-diagram-type="ACTIVITY" height="970px" preserveAspectRatio="none" style="width:485px;height:970px;background:#FFFFFF;" version="1.1" viewBox="0 0 485 970" width="485px" zoomAndPan="magnify"><?plantuml 1.2026.3beta6?><defs/><g><g class="title" data-source-line="1"><text fill="#000000" font-family="Arial" font-size="14" font-weight="700" lengthAdjust="spacing" textLength="310.1738" x="86.7344" y="32.9951">HU-02 - Registro de Ventas (User Flow)</text></g><rect fill="#212121" height="33.9688" rx="12.5" ry="12.5" style="stroke:#212121;stroke-width:0.5;" width="51.752" x="212.9165" y="53.2969"/><text fill="#FFFFFF" font-family="Arial" font-size="12" lengthAdjust="spacing" textLength="31.752" x="222.9165" y="74.4355">Inicio</text><rect fill="#EDE7F6" height="33.9688" rx="12.5" ry="12.5" style="stroke:#B39DDB;stroke-width:0.5;" width="129.0723" x="174.2563" y="107.2656"/><text fill="#000000" font-family="Arial" font-size="12" lengthAdjust="spacing" textLength="109.0723" x="184.2563" y="128.4043">Accede al sistema</text><rect fill="#EDE7F6" height="33.9688" rx="12.5" ry="12.5" style="stroke:#B39DDB;stroke-width:0.5;" width="193.3203" x="142.1323" y="161.2344"/><text fill="#000000" font-family="Arial" font-size="12" lengthAdjust="spacing" textLength="173.3203" x="152.1323" y="182.373">Selecciona "Registrar Venta"</text><rect fill="#EDE7F6" height="33.9688" rx="12.5" ry="12.5" style="stroke:#B39DDB;stroke-width:0.5;" width="142.1211" x="167.7319" y="215.2031"/><text fill="#000000" font-family="Arial" font-size="12" lengthAdjust="spacing" textLength="122.1211" x="177.7319" y="236.3418">Selecciona producto</text><polygon fill="#F1F1F1" points="190.2029,269.1719,287.3821,269.1719,299.3821,281.1719,287.3821,293.1719,190.2029,293.1719,178.2029,281.1719,190.2029,269.1719" style="stroke:#181818;stroke-width:0.5;"/><text fill="#000000" font-family="Arial" font-size="11" lengthAdjust="spacing" textLength="97.1792" x="190.2029" y="284.98">&#191;Producto v&#225;lido?</text><text fill="#000000" font-family="Arial" font-size="11" lengthAdjust="spacing" textLength="10.0386" x="168.1643" y="278.5776">S&#237;</text><text fill="#000000" font-family="Arial" font-size="11" lengthAdjust="spacing" textLength="14.9585" x="299.3821" y="278.5776">No</text><rect fill="#E3F2FD" height="33.9688" rx="12.5" ry="12.5" style="stroke:#64B5F6;stroke-width:0.5;" width="124.5488" x="78.855" y="303.1719"/><text fill="#000000" font-family="Arial" font-size="12" lengthAdjust="spacing" textLength="104.5488" x="88.855" y="324.3105">Solicitar cantidad</text><rect fill="#E3F2FD" height="33.9688" rx="12.5" ry="12.5" style="stroke:#64B5F6;stroke-width:0.5;" width="226.1035" x="223.4038" y="303.1719"/><text fill="#000000" font-family="Arial" font-size="12" lengthAdjust="spacing" textLength="206.1035" x="233.4038" y="324.3105">Mostrar error "Producto no v&#225;lido"</text><rect fill="#212121" height="33.9688" rx="12.5" ry="12.5" style="stroke:#212121;stroke-width:0.5;" width="37.8418" x="317.5347" y="357.1406"/><text fill="#FFFFFF" font-family="Arial" font-size="12" lengthAdjust="spacing" textLength="17.8418" x="327.5347" y="378.2793">Fin</text><ellipse cx="336.4556" cy="422.1094" fill="none" rx="11" ry="11" style="stroke:#222222;stroke-width:1;"/><ellipse cx="336.4556" cy="422.1094" fill="#222222" rx="6" ry="6" style="stroke:#222222;stroke-width:1;"/><rect fill="#EDE7F6" height="33.9688" rx="12.5" ry="12.5" style="stroke:#B39DDB;stroke-width:0.5;" width="120.6816" x="178.4517" y="453.1094"/><text fill="#000000" font-family="Arial" font-size="12" lengthAdjust="spacing" textLength="100.6816" x="188.4517" y="474.248">Ingresa cantidad</text><polygon fill="#F1F1F1" points="189.929,507.0781,287.656,507.0781,299.656,519.0781,287.656,531.0781,189.929,531.0781,177.929,519.0781,189.929,507.0781" style="stroke:#181818;stroke-width:0.5;"/><text fill="#000000" font-family="Arial" font-size="11" lengthAdjust="spacing" textLength="97.7271" x="189.929" y="522.8862">&#191;Cantidad v&#225;lida?</text><text fill="#000000" font-family="Arial" font-size="11" lengthAdjust="spacing" textLength="10.0386" x="167.8904" y="516.4839">S&#237;</text><text fill="#000000" font-family="Arial" font-size="11" lengthAdjust="spacing" textLength="14.9585" x="299.656" y="516.4839">No</text><rect fill="#E3F2FD" height="33.9688" rx="12.5" ry="12.5" style="stroke:#64B5F6;stroke-width:0.5;" width="210.7637" x="16" y="541.0781"/><text fill="#000000" font-family="Arial" font-size="12" lengthAdjust="spacing" textLength="190.7637" x="26" y="562.2168">Calcular total autom&#225;ticamente</text><rect fill="#E3F2FD" height="33.9688" rx="12.5" ry="12.5" style="stroke:#64B5F6;stroke-width:0.5;" width="218.8789" x="246.7637" y="541.0781"/><text fill="#000000" font-family="Arial" font-size="12" lengthAdjust="spacing" textLength="198.8789" x="256.7637" y="562.2168">Mostrar error "Cantidad inv&#225;lida"</text><rect fill="#212121" height="33.9688" rx="12.5" ry="12.5" style="stroke:#212121;stroke-width:0.5;" width="37.8418" x="337.2822" y="595.0469"/><text fill="#FFFFFF" font-family="Arial" font-size="12" lengthAdjust="spacing" textLength="17.8418" x="347.2822" y="616.1855">Fin</text><ellipse cx="356.2031" cy="660.0156" fill="none" rx="11" ry="11" style="stroke:#222222;stroke-width:1;"/><ellipse cx="356.2031" cy="660.0156" fill="#222222" rx="6" ry="6" style="stroke:#222222;stroke-width:1;"/><rect fill="#E3F2FD" height="33.9688" rx="12.5" ry="12.5" style="stroke:#64B5F6;stroke-width:0.5;" width="168.4063" x="154.5894" y="691.0156"/><text fill="#000000" font-family="Arial" font-size="12" lengthAdjust="spacing" textLength="148.4063" x="164.5894" y="712.1543">Mostrar total de la venta</text><polygon fill="#F1F1F1" points="188.1484,744.9844,289.4365,744.9844,301.4365,756.9844,289.4365,768.9844,188.1484,768.9844,176.1484,756.9844,188.1484,744.9844" style="stroke:#181818;stroke-width:0.5;"/><text fill="#000000" font-family="Arial" font-size="11" lengthAdjust="spacing" textLength="101.2881" x="188.1484" y="760.7925">&#191;Confirmar venta?</text><text fill="#000000" font-family="Arial" font-size="11" lengthAdjust="spacing" textLength="10.0386" x="166.1099" y="754.3901">S&#237;</text><text fill="#000000" font-family="Arial" font-size="11" lengthAdjust="spacing" textLength="14.9585" x="301.4365" y="754.3901">No</text><rect fill="#E3F2FD" height="33.9688" rx="12.5" ry="12.5" style="stroke:#64B5F6;stroke-width:0.5;" width="147.1484" x="84.2412" y="778.9844"/><text fill="#000000" font-family="Arial" font-size="12" lengthAdjust="spacing" textLength="127.1484" x="94.2412" y="800.123">Guardar venta en BD</text><rect fill="#E3F2FD" height="33.9688" rx="12.5" ry="12.5" style="stroke:#64B5F6;stroke-width:0.5;" width="147.6465" x="83.9922" y="832.9531"/><text fill="#000000" font-family="Arial" font-size="12" lengthAdjust="spacing" textLength="127.6465" x="93.9922" y="854.0918">Mostrar confirmaci&#243;n</text><rect fill="#E3F2FD" height="33.9688" rx="12.5" ry="12.5" style="stroke:#64B5F6;stroke-width:0.5;" width="136.2617" x="251.6387" y="778.9844"/><text fill="#000000" font-family="Arial" font-size="12" lengthAdjust="spacing" textLength="116.2617" x="261.6387" y="800.123">Cancelar operaci&#243;n</text><polygon fill="#F1F1F1" points="238.7925,872.9219,250.7925,884.9219,238.7925,896.9219,226.7925,884.9219,238.7925,872.9219" style="stroke:#181818;stroke-width:0.5;"/><rect fill="#212121" height="33.9688" rx="12.5" ry="12.5" style="stroke:#212121;stroke-width:0.5;" width="37.8418" x="219.8716" y="916.9219"/><text fill="#FFFFFF" font-family="Arial" font-size="12" lengthAdjust="spacing" textLength="17.8418" x="229.8716" y="938.0605">Fin</text><line style="stroke:#181818;stroke-width:1;" x1="238.7925" x2="238.7925" y1="87.2656" y2="107.2656"/><polygon fill="#181818" points="234.7925,97.2656,238.7925,107.2656,242.7925,97.2656,238.7925,101.2656" style="stroke:#181818;stroke-width:1;"/><line style="stroke:#181818;stroke-width:1;" x1="238.7925" x2="238.7925" y1="141.2344" y2="161.2344"/><polygon fill="#181818" points="234.7925,151.2344,238.7925,161.2344,242.7925,151.2344,238.7925,155.2344" style="stroke:#181818;stroke-width:1;"/><line style="stroke:#181818;stroke-width:1;" x1="238.7925" x2="238.7925" y1="195.2031" y2="215.2031"/><polygon fill="#181818" points="234.7925,205.2031,238.7925,215.2031,242.7925,205.2031,238.7925,209.2031" style="stroke:#181818;stroke-width:1;"/><line style="stroke:#181818;stroke-width:1;" x1="336.4556" x2="336.4556" y1="337.1406" y2="357.1406"/><polygon fill="#181818" points="332.4556,347.1406,336.4556,357.1406,340.4556,347.1406,336.4556,351.1406" style="stroke:#181818;stroke-width:1;"/><line style="stroke:#181818;stroke-width:1;" x1="336.4556" x2="336.4556" y1="391.1094" y2="411.1094"/><polygon fill="#181818" points="332.4556,401.1094,336.4556,411.1094,340.4556,401.1094,336.4556,405.1094" style="stroke:#181818;stroke-width:1;"/><line style="stroke:#181818;stroke-width:1;" x1="178.2029" x2="141.1294" y1="281.1719" y2="281.1719"/><line style="stroke:#181818;stroke-width:1;" x1="141.1294" x2="141.1294" y1="281.1719" y2="303.1719"/><polygon fill="#181818" points="137.1294,293.1719,141.1294,303.1719,145.1294,293.1719,141.1294,297.1719" style="stroke:#181818;stroke-width:1;"/><line style="stroke:#181818;stroke-width:1;" x1="299.3821" x2="336.4556" y1="281.1719" y2="281.1719"/><line style="stroke:#181818;stroke-width:1;" x1="336.4556" x2="336.4556" y1="281.1719" y2="303.1719"/><polygon fill="#181818" points="332.4556,293.1719,336.4556,303.1719,340.4556,293.1719,336.4556,297.1719" style="stroke:#181818;stroke-width:1;"/><line style="stroke:#181818;stroke-width:1;" x1="141.1294" x2="141.1294" y1="337.1406" y2="438.1094"/><line style="stroke:#181818;stroke-width:1;" x1="141.1294" x2="238.7925" y1="438.1094" y2="438.1094"/><line style="stroke:#181818;stroke-width:1;" x1="238.7925" x2="238.7925" y1="438.1094" y2="453.1094"/><polygon fill="#181818" points="234.7925,443.1094,238.7925,453.1094,242.7925,443.1094,238.7925,447.1094" style="stroke:#181818;stroke-width:1;"/><line style="stroke:#181818;stroke-width:1;" x1="238.7925" x2="238.7925" y1="249.1719" y2="269.1719"/><polygon fill="#181818" points="234.7925,259.1719,238.7925,269.1719,242.7925,259.1719,238.7925,263.1719" style="stroke:#181818;stroke-width:1;"/><line style="stroke:#181818;stroke-width:1;" x1="356.2031" x2="356.2031" y1="575.0469" y2="595.0469"/><polygon fill="#181818" points="352.2031,585.0469,356.2031,595.0469,360.2031,585.0469,356.2031,589.0469" style="stroke:#181818;stroke-width:1;"/><line style="stroke:#181818;stroke-width:1;" x1="356.2031" x2="356.2031" y1="629.0156" y2="649.0156"/><polygon fill="#181818" points="352.2031,639.0156,356.2031,649.0156,360.2031,639.0156,356.2031,643.0156" style="stroke:#181818;stroke-width:1;"/><line style="stroke:#181818;stroke-width:1;" x1="177.929" x2="121.3818" y1="519.0781" y2="519.0781"/><line style="stroke:#181818;stroke-width:1;" x1="121.3818" x2="121.3818" y1="519.0781" y2="541.0781"/><polygon fill="#181818" points="117.3818,531.0781,121.3818,541.0781,125.3818,531.0781,121.3818,535.0781" style="stroke:#181818;stroke-width:1;"/><line style="stroke:#181818;stroke-width:1;" x1="299.656" x2="356.2031" y1="519.0781" y2="519.0781"/><line style="stroke:#181818;stroke-width:1;" x1="356.2031" x2="356.2031" y1="519.0781" y2="541.0781"/><polygon fill="#181818" points="352.2031,531.0781,356.2031,541.0781,360.2031,531.0781,356.2031,535.0781" style="stroke:#181818;stroke-width:1;"/><line style="stroke:#181818;stroke-width:1;" x1="121.3818" x2="121.3818" y1="575.0469" y2="676.0156"/><line style="stroke:#181818;stroke-width:1;" x1="121.3818" x2="238.7925" y1="676.0156" y2="676.0156"/><line style="stroke:#181818;stroke-width:1;" x1="238.7925" x2="238.7925" y1="676.0156" y2="691.0156"/><polygon fill="#181818" points="234.7925,681.0156,238.7925,691.0156,242.7925,681.0156,238.7925,685.0156" style="stroke:#181818;stroke-width:1;"/><line style="stroke:#181818;stroke-width:1;" x1="238.7925" x2="238.7925" y1="487.0781" y2="507.0781"/><polygon fill="#181818" points="234.7925,497.0781,238.7925,507.0781,242.7925,497.0781,238.7925,501.0781" style="stroke:#181818;stroke-width:1;"/><line style="stroke:#181818;stroke-width:1;" x1="157.8154" x2="157.8154" y1="812.9531" y2="832.9531"/><polygon fill="#181818" points="153.8154,822.9531,157.8154,832.9531,161.8154,822.9531,157.8154,826.9531" style="stroke:#181818;stroke-width:1;"/><line style="stroke:#181818;stroke-width:1;" x1="176.1484" x2="157.8154" y1="756.9844" y2="756.9844"/><line style="stroke:#181818;stroke-width:1;" x1="157.8154" x2="157.8154" y1="756.9844" y2="778.9844"/><polygon fill="#181818" points="153.8154,768.9844,157.8154,778.9844,161.8154,768.9844,157.8154,772.9844" style="stroke:#181818;stroke-width:1;"/><line style="stroke:#181818;stroke-width:1;" x1="301.4365" x2="319.7695" y1="756.9844" y2="756.9844"/><line style="stroke:#181818;stroke-width:1;" x1="319.7695" x2="319.7695" y1="756.9844" y2="778.9844"/><polygon fill="#181818" points="315.7695,768.9844,319.7695,778.9844,323.7695,768.9844,319.7695,772.9844" style="stroke:#181818;stroke-width:1;"/><line style="stroke:#181818;stroke-width:1;" x1="157.8154" x2="157.8154" y1="866.9219" y2="884.9219"/><line style="stroke:#181818;stroke-width:1;" x1="157.8154" x2="226.7925" y1="884.9219" y2="884.9219"/><polygon fill="#181818" points="216.7925,880.9219,226.7925,884.9219,216.7925,888.9219,220.7925,884.9219" style="stroke:#181818;stroke-width:1;"/><line style="stroke:#181818;stroke-width:1;" x1="319.7695" x2="319.7695" y1="812.9531" y2="884.9219"/><line style="stroke:#181818;stroke-width:1;" x1="319.7695" x2="250.7925" y1="884.9219" y2="884.9219"/><polygon fill="#181818" points="260.7925,880.9219,250.7925,884.9219,260.7925,888.9219,256.7925,884.9219" style="stroke:#181818;stroke-width:1;"/><line style="stroke:#181818;stroke-width:1;" x1="238.7925" x2="238.7925" y1="724.9844" y2="744.9844"/><polygon fill="#181818" points="234.7925,734.9844,238.7925,744.9844,242.7925,734.9844,238.7925,738.9844" style="stroke:#181818;stroke-width:1;"/><line style="stroke:#181818;stroke-width:1;" x1="238.7925" x2="238.7925" y1="896.9219" y2="916.9219"/><polygon fill="#181818" points="234.7925,906.9219,238.7925,916.9219,242.7925,906.9219,238.7925,910.9219" style="stroke:#181818;stroke-width:1;"/><?plantuml-src bLHBRjim4Dtp50Dt4NiH85NY57M359PbjLqqA6Aa-ob9EKGeZa5I3jAYXya1kke12jGNA_Mn8Sasa4eBGPmtyzwR6SahhoLyl3izY-0KRkLIEMy9X8IlqdXqCBnpqaAgwN74c7jGPeKMS_Y6_65fgJ1YHfeil4ghguLmzoZeKPabPAYTR4KIcM6XVKh6ts0kOMeLQiPEOEwyqkHW9QqZWrfz3oLSAnEvLslbdwwkYg3g-Xf-C82uBsMUpD-absM4h92sEOtFtoP974vlQwWrmLTqndwoWmJkoNcP7wKuJwCqwLDSNiJZYlY551wjbqOS8ubUbtU8b9tgjhb7l4DsYCTTOg4m9oCESyLnCa_ZVjsBQ3fEgp8dyCaeheXDwkSxQEjdR3BbN8QjGGrEbPt34b5FYKqMKaiUiWp2eDanjFM63Lgu3d1bIHJSKpkkCXZ-_VEbYS1wywoLeFSZyFVIm72n-JKA5YOBqa5ZK0SSZLS2HIMtcIYJOHrXU4CLzZFLOgIrmV5WLzlioWywoI4bLQPd7y1vMh7meZ9MjcXffSCEUzV2h8aq7BXdOOQQ5pheykH3Jx7mb6-UlUBXWp5UljZFZaYPXkh_xMnBrbB2a3N2kfnTfzBM6PbCsJp0AyYUiGy5Mh6DGeZ4IL_GbeytfRZQ_3R77GUBN9Qjel3VE0HkREpv_0S0?></g></svg>